<?xml version="1.0" encoding="utf-8"?>
<!-- Generator: Adobe Illustrator 27.5.0, SVG Export Plug-In . SVG Version: 6.00 Build 0)  -->
<svg version="1.1" id="Layer_1" xmlns="http://www.w3.org/2000/svg" xmlns:xlink="http://www.w3.org/1999/xlink" x="0px" y="0px"
	 viewBox="0 0 4000 4000" style="enable-background:new 0 0 4000 4000;" xml:space="preserve">
<g>
	<g>
		<g>
			<rect style="fill:#FFCAEC;" width="4000" height="4000"/>
		</g>
	</g>
	<g>
		<g style="opacity:0.25;">
			<g>
				<ellipse style="fill:#390075;" cx="2027.545" cy="3574.801" rx="853.575" ry="105.2"/>
			</g>
		</g>
		<g>
			<g>
				<path style="fill:#FFFFFF;" d="M2063.807,2300.909c0.495-0.408,1.006-0.805,1.637-1.049c2.271-0.886,4.729-0.285,6.413,1.271
					c311.859,8.304,528.368-49.641,643.397-172.553c76.4-81.642,108.164-192.228,94.399-328.683
					c-28.231-279.965-227.526-564.822-229.531-567.667c-1.154-1.625-1.449-3.708-0.797-5.593c0.653-1.878,2.168-3.334,4.077-3.902
					c1.027-0.314,105.778-34.512,205.232-253.6c97.896-215.688,123.046-517.819,69.653-577.5
					c-10.806-12.074-29.982-17.782-55.495-16.616c-87.779,4.155-239.129,87.314-346.719,233.234
					c-136.389,184.998-182.021,410.265-182.462,412.518c-0.429,2.156-1.969,3.926-4.047,4.645c-2.072,0.731-4.379,0.284-6.046-1.148
					c-68.904-59.059-240.403-128.319-276.878-118.432c-6.734,1.812-8.625,4.995-9.459,7.236
					c-5.533,14.81,16.115,46.955,25.362,60.684c4.766,7.085,6.306,9.428,6.843,11.591c0.471,1.872-0.036,4.155-1.244,5.665
					c-3.141,3.92-7.357,4.131-56.299,2.929c-34.105-0.844-82.8-2.043-118.732,0.655c-0.15,0.021-0.295,0.026-0.446,0.035
					c-20.391,1.555-36.626,4.374-43.606,9.258c-5.49,3.847-8.257,8.257-8.45,13.481c-0.519,14.128,17.135,31.722,23.979,37.309
					c1.794,1.468,2.621,3.811,2.138,6.076c-0.477,2.271-2.187,4.077-4.421,4.687c-321.387,87.652-407.686,397.056-429.871,526.015
					c-8.069,46.906-20.355,95.734-36.512,145.122c-48.308,147.665-42.376,261.507,18.126,348.041
					c93.873,134.244,316.501,202.889,700.625,216.038C2057.749,2300.761,2060.751,2300.817,2063.807,2300.909z"/>
			</g>
		</g>
		<g>
			<g>
				<path style="fill:#FFFFFF;" d="M2422.563,1065.857c0-0.362,0.03-0.725,0.096-1.081c0.272-1.54,28.599-156.23,136.558-323.809
					c76.188-118.245,173.649-233.65,220.218-224.693c7.604,1.462,17.401,6.964,20.898,24.873
					c0.683,3.509,64.332,354.015-296.212,606.389c-1.069,0.749-2.307,1.117-3.545,1.117c-1.474,0-2.941-0.525-4.107-1.564
					l-71.827-63.843c-1.323-1.172-2.078-2.851-2.078-4.621V1065.857z"/>
			</g>
		</g>
		<g>
			<g>
				<path style="fill:#FFFFFF;" d="M2032.985,1976.237c-7.215,5.361-14.662,10.511-22.14,15.668
					c-15.834,8.714-32.314,17.355-50.695,20.684c-18.084,3.925-37.368,3.829-55.604-1.107
					c-16.536-4.762-31.805-12.655-44.741-24.802c-13.391,8.654-27.994,15.884-43.826,19.839c-17.407,4.46-36.438,4.143-53.487-1.875
					c-17.129-5.925-31.699-16.998-43.409-29.879c-11.49-13.133-21.068-27.809-27.337-43.815
					c8.673,14.745,19.095,28.388,31.538,39.666c12.255,11.375,26.544,20.447,42.105,24.995c15.582,4.346,32.11,4.269,47.678-0.28
					c14.558-4.146,28.405-11.1,41.23-19.776l-1.077-65.375c-19.31-7.209-98.015-39.543-88.519-84.65
					c7.278-34.536,77.608-40.383,120.256-35.92c20.433,2.126,67.956,10.014,67.956,37.194c0,45.578-54.645,73.751-87.314,83.642
					l1.083,65.808c5.09,5.048,11.464,9.937,17.957,13.865c3.719,1.984,7.322,4.214,11.287,5.696l5.832,2.466l6.063,1.835
					c16.172,5.064,33.557,5.437,50.541,2.858c4.228-0.838,8.509-1.5,12.729-2.47l12.443-3.958c4.246-1.089,8.235-2.907,12.234-4.722
					l12.083-5.331c7.734-4.217,15.541-8.464,23.21-12.984c7.283-5.092,14.682-10.089,22.206-15.024
					C2046.628,1964.473,2039.865,1970.402,2032.985,1976.237z"/>
			</g>
		</g>
		<g>
			<g>
				<path style="fill:#390075;" d="M1940.543,1826.803c0-11.168-23.387-21.406-56.866-24.891
					c-8.063-0.839-16.374-1.256-24.637-1.256c-39.822,0-78.483,9.61-82.234,27.422c-6.777,32.187,55.791,61.71,82.748,71.26
					C1892.791,1889.993,1940.543,1863.508,1940.543,1826.803z"/>
			</g>
		</g>
		<g>
			<g>
				<path style="fill:#FC807E;" d="M2788.193,543.514c-2.627-13.463-9-14.689-11.089-15.088
					c-28.762-5.466-111.003,69.484-207.485,219.245c-103.435,160.555-132.813,308.866-134.686,318.753v9.422l66.09,58.745
					C2790.935,929.094,2806.73,638.535,2788.193,543.514z"/>
			</g>
		</g>
		<g>
			<g>
				<path style="fill:#FC807E;" d="M1781.97,993.752c8.224-5.758,24.386-9.143,45.612-11.044
					c69.408-228.746,35.098-496.518,21.178-523.53c-18.953,2.18-103.561,137.518-140.176,320.596
					c-33.741,168.702-15.138,282.196-9.185,310.968c27.494-13.289,57.055-24.891,89.058-34.241
					c-8.631-8.909-20.759-24.238-20.204-39.568C1768.585,1007.692,1773.2,999.894,1781.97,993.752z"/>
			</g>
		</g>
		<g>
			<g>
				<path style="fill:#FFFFFF;" d="M1687.977,1096.479c-5.32-24.219-26.961-141.926,8.479-319.133
					c36.699-183.525,120.993-326.062,150.909-330.423c5.14-0.785,9.755,1.601,12.255,6.324
					c14.686,27.748,51.195,292.932-18.83,528.504c31.049-1.791,70.292-1.193,111.362-0.175c15.74,0.387,31.849,0.779,41.15,0.604
					c-0.338-0.507-0.682-1.015-1.021-1.516c-12.038-17.878-34.446-51.153-26.691-71.924c1.694-4.527,5.57-10.317,14.318-13.687
					c65.002-240.833-26.736-564.98-80.546-582.083c-13.602-4.306-31.649-0.84-52.215,10.081
					c-65.757,34.911-165.991,155.131-232.068,379.05c-73.926,250.517-46.857,428.11-38.493,470.327
					C1608.866,1143.898,1645.793,1118.098,1687.977,1096.479z"/>
			</g>
		</g>
		<g>
			<g>
				<path style="fill:none;" d="M1491.834,2108.118c161.606,110.131,756.556,152.03,1004.354,55.066
					c218.292-85.42,299.979-237.99,315.528-337.641c-0.507-8.446-1.19-16.993-2.063-25.649
					c-28.231-279.965-227.526-564.822-229.531-567.667c-0.749-1.055-1.095-2.306-1.096-3.568
					c-0.001-0.001-31.364-37.508-32.163-39.902c-0.797-2.394,110.133-81.401,186.745-225.85
					c51.583-97.255,62.633-204.202,64.356-263.753c-19.36,125.4-86.343,303.134-293.843,448.38
					c-1.069,0.749-2.307,1.117-3.545,1.117c-1.474,0-2.941-0.525-4.107-1.564l-71.827-63.843c-1.323-1.172-2.078-2.851-2.078-4.621
					v-7.182c0,0-23.34-148.438,98.762-337.579c122.103-189.139,207.014-267.165,283.75-270.54
					c67.105-2.952,61.058,204.469,49.945,305.552c39.469-169.51,41.263-334.773,3.266-377.245
					c-10.806-12.074-29.982-17.782-55.495-16.616c-87.779,4.155-239.129,87.314-346.719,233.234
					c-136.389,184.998-182.021,410.265-182.462,412.518c-0.429,2.156-1.969,3.926-4.047,4.645c-2.072,0.731-4.379,0.284-6.046-1.148
					c-68.904-59.059-240.403-128.319-276.878-118.432c-6.734,1.812-8.625,4.995-9.459,7.236
					c-5.533,14.81,16.115,46.955,25.362,60.684c4.766,7.085,6.306,9.428,6.843,11.591c0.471,1.872-0.036,4.155-1.244,5.665
					c-3.141,3.92-7.357,4.131-56.299,2.929c-34.105-0.844-82.8-2.043-118.732,0.655c-0.15,0.021-0.295,0.026-0.446,0.035
					c-20.391,1.555-36.626,4.374-43.606,9.258c-5.49,3.847-8.257,8.257-8.45,13.481c-0.519,14.128,17.135,31.722,23.979,37.309
					c1.794,1.468,2.621,3.811,2.138,6.076c-0.477,2.271-2.187,4.077-4.421,4.687c-321.387,87.652-407.686,397.056-429.871,526.015
					c-8.069,46.906-20.355,95.734-36.512,145.122c-4.273,13.062-7.967,25.766-11.391,38.303
					C1324.806,1783.282,1333.371,2000.129,1491.834,2108.118z M1723.284,1970.615c12.255,11.375,26.544,20.447,42.105,24.995
					c15.582,4.346,32.11,4.269,47.678-0.28c14.558-4.146,28.405-11.1,41.23-19.776l-1.077-65.375
					c-19.31-7.209-98.015-39.543-88.519-84.65c7.278-34.536,77.608-40.383,120.256-35.92c20.433,2.126,67.956,10.014,67.956,37.194
					c0,45.578-54.645,73.751-87.314,83.642l1.083,65.808c5.09,5.048,11.464,9.937,17.957,13.865
					c3.719,1.984,7.322,4.214,11.287,5.696l5.832,2.466l6.063,1.835c16.172,5.064,33.557,5.437,50.541,2.858
					c4.228-0.838,8.509-1.5,12.729-2.47l12.443-3.958c4.246-1.089,8.235-2.907,12.234-4.722l12.083-5.331
					c7.734-4.217,15.541-8.464,23.21-12.984c7.283-5.092,14.682-10.089,22.206-15.024c-6.638,5.99-13.401,11.92-20.281,17.755
					c-7.215,5.361-14.662,10.511-22.14,15.668c-15.834,8.714-32.314,17.355-50.695,20.684c-18.084,3.925-37.368,3.829-55.604-1.107
					c-16.536-4.762-31.805-12.655-44.741-24.802c-13.391,8.654-27.994,15.884-43.826,19.839c-17.407,4.46-36.438,4.143-53.487-1.875
					c-17.129-5.925-31.699-16.998-43.409-29.879c-11.49-13.133-21.068-27.809-27.337-43.815
					C1700.42,1945.694,1710.842,1959.337,1723.284,1970.615z"/>
			</g>
		</g>
		<g>
			<g>
				<path style="fill:none;" d="M2739.993,616.552c-15.961-21.548-121.304,112.808-180.361,214.818
					c-44.019,76.038-86.251,135.282-104.908,160.533c-13.502,42.576-19.015,70.431-19.79,74.523v9.422l66.09,58.745
					c144.026-102.091,220.382-225.167,258.502-334.839C2758.161,757.001,2753.14,634.299,2739.993,616.552z"/>
			</g>
		</g>
		<g>
			<g>
				<path style="fill:none;" d="M1617.527,1066.056c22.278,10.429,53.114,2.479,65.013-1.286
					c-6.861-50.55-13.28-151.437,13.916-287.424c36.699-183.525,120.993-326.062,150.909-330.423
					c5.14-0.785,9.755,1.601,12.255,6.324c0,0,43.213,42.798,55.184,194.429c11.97,151.631-8.749,333.027-8.749,333.027
					l-0.012,0.002c14.866,0.156,30.346,0.48,46.109,0.871c15.74,0.387,31.849,0.779,41.15,0.604
					c-0.338-0.507-0.682-1.015-1.021-1.516c-12.038-17.878-34.446-51.153-26.691-71.924c1.694-4.527,5.57-10.317,14.318-13.687
					c65.002-240.833-26.736-564.98-80.546-582.083c-13.602-4.306-31.649-0.84-52.215,10.081
					c-65.757,34.911-165.991,155.131-232.068,379.05c-27.722,93.944-41.242,177.633-46.872,247.773
					C1568.208,949.873,1589.396,1052.889,1617.527,1066.056z"/>
			</g>
		</g>
		<g>
			<g>
				<path style="fill:none;" d="M1940.543,1826.803c0-11.168-23.387-21.406-56.866-24.891c-8.063-0.839-16.374-1.256-24.637-1.256
					c-39.822,0-78.483,9.61-82.234,27.422c-6.777,32.187,55.791,61.71,82.748,71.26
					C1892.791,1889.993,1940.543,1863.508,1940.543,1826.803z"/>
			</g>
		</g>
		<g>
			<g>
				<path style="fill:none;" d="M1781.97,993.752c8.224-5.758,24.386-9.143,45.612-11.044
					c35.162-115.879,43.698-241.754,41.759-341.291c-9.939-19.267-33.516-56.666-58.485-36.237
					c-32.725,26.774-116.736,275.895-117.964,281.305c-10.177,109.441,1.916,182.066,6.507,204.257
					c27.494-13.289,57.055-24.891,89.058-34.241c-8.631-8.909-20.759-24.238-20.204-39.568
					C1768.585,1007.692,1773.2,999.894,1781.97,993.752z"/>
			</g>
		</g>
		<g style="opacity:0.3;">
			<g>
				<path style="fill:#390075;" d="M1576.587,1172.426c32.279-28.528,69.206-54.328,111.391-75.947
					c-1.237-5.634-3.357-16.387-5.438-31.709c-11.899,3.766-42.734,11.715-65.013,1.286
					c-28.131-13.167-49.319-116.183-49.319-116.183C1558.825,1066.774,1571.359,1146.041,1576.587,1172.426z"/>
			</g>
		</g>
		<g style="opacity:0.3;">
			<g>
				<path style="fill:#390075;" d="M1810.856,605.18c24.969-20.429,48.546,16.97,58.485,36.237
					c-1.887-96.949-13.712-168.911-20.581-182.238c-18.953,2.18-103.561,137.518-140.176,320.596
					c-7.718,38.59-12.673,74.252-15.692,106.711C1694.12,881.075,1778.131,631.954,1810.856,605.18z"/>
			</g>
		</g>
		<g style="opacity:0.3;">
			<g>
				<path style="fill:#390075;" d="M1914.804,647.676c-11.971-151.63-55.184-194.429-55.184-194.429
					c14.686,27.748,51.195,292.932-18.83,528.504c19.132-1.104,41.389-1.296,65.253-1.047l0.012-0.002
					C1906.055,980.702,1926.774,799.307,1914.804,647.676z"/>
			</g>
		</g>
		<g style="opacity:0.25;">
			<g>
				<path style="fill:#021168;" d="M2553.539,2248.571c5.253,1.196,11.53,2.732,18.49,4.564
					c220.979-99.866,254.719-274.598,252.936-379.029c-2.701,106.038-36.415,194.252-100.674,262.921
					C2681.083,2183.2,2624.024,2220.379,2553.539,2248.571z"/>
			</g>
		</g>
		<g style="opacity:0.3;">
			<g>
				<path style="fill:#390075;" d="M2496.188,2133.311c-247.797,96.963-842.748,55.065-1004.354-55.066
					c-158.463-107.989-167.028-324.836-167.301-333.237c-35.286,129.195-25.634,230.858,29.517,309.738
					c93.873,134.244,316.501,202.889,700.625,216.038c3.074,0.104,6.076,0.16,9.132,0.252c0.495-0.408,1.006-0.805,1.637-1.049
					c2.271-0.886,4.729-0.285,6.413,1.271c38.964,1.038,76.439,1.041,112.415,0.012c2.727-0.104,5.53-0.204,8.347-0.301
					c247.526-8.239,423.102-65.91,522.636-172.264c71.554-76.464,103.946-178.32,96.461-303.035
					C2796.166,1895.321,2714.48,2047.891,2496.188,2133.311z"/>
			</g>
		</g>
		<g style="opacity:0.3;">
			<g>
				<path style="fill:#390075;" d="M2805.076,463.325c-76.736,3.375-161.648,81.401-283.75,270.54
					c-122.103,189.14-98.762,337.579-98.762,337.579v-5.587c0-0.362,0.03-0.725,0.096-1.081
					c0.272-1.54,28.599-156.23,136.558-323.809c76.188-118.245,173.649-233.65,220.218-224.693
					c7.604,1.462,17.401,6.964,20.898,24.873c0.29,1.49,11.911,65.519-2.369,158.009c-1.723,59.55-12.773,166.498-64.356,263.753
					c-76.613,144.448-187.543,223.456-186.745,225.85c0.799,2.394,32.161,39.901,32.163,39.902c0-0.681,0.069-1.364,0.299-2.025
					c0.653-1.878,2.168-3.334,4.077-3.902c1.027-0.314,105.778-34.512,205.232-253.6c28.228-62.194,50.395-131.572,66.387-200.255
					C2866.135,667.794,2872.182,460.373,2805.076,463.325z"/>
			</g>
		</g>
		<g style="opacity:0.3;">
			<g>
				<path style="fill:#390075;" d="M2739.993,616.552c13.147,17.748,18.168,140.449,19.532,183.201
					c38.612-111.089,37.996-208.423,28.669-256.238c-2.627-13.463-9-14.689-11.089-15.088
					c-28.762-5.466-111.003,69.484-207.485,219.245c-60.622,94.098-95.779,183.945-114.896,244.231
					c18.657-25.25,60.889-84.495,104.908-160.533C2618.689,729.359,2724.032,595.004,2739.993,616.552z"/>
			</g>
		</g>
		<g>
			<g>
				<ellipse style="fill:#FFFFFF;" cx="1861.511" cy="1811.346" rx="85.215" ry="23.039"/>
			</g>
		</g>
		<g>
			<g>
				<path style="fill:#390075;" d="M1572.681,1201.556c-7.964,0-15.229-5.339-17.329-13.406
					c-2.08-8.003-49.995-199.39,36.602-492.876c68.12-230.84,170.649-354.636,243.892-393.521
					c26.421-14.028,50.913-18.083,70.82-11.76c46.753,14.858,83.184,128.55,101.685,229.99
					c25.337,138.909,23.135,279.111-6.04,384.653c-2.642,9.544-12.515,15.134-22.051,12.5c-9.541-2.637-15.137-12.51-12.5-22.051
					c27.783-100.518,29.726-234.89,5.327-368.669c-24.316-133.303-62.329-197.507-77.28-202.258
					c-10.371-3.293-25.693-0.01-43.15,9.258c-63.75,33.845-161.274,151.58-226.318,372.004
					c-83.56,283.176-36.768,471.853-36.284,473.726c2.466,9.578-3.291,19.355-12.866,21.833
					C1575.684,1201.37,1574.17,1201.556,1572.681,1201.556z"/>
			</g>
		</g>
		<g>
			<g>
				<path style="fill:#390075;" d="M1695.039,1114.529c-6.601,0-12.637-4.409-14.424-11.089c-1.357-5.1-32.866-127.19,7.256-327.813
					c33.35-166.748,117.412-331.416,158.228-337.366c8.843-1.272,17.012,2.883,21.255,10.891
					c15.142,28.606,53.433,303.818-20.796,543.765c-2.437,7.886-10.801,12.295-18.682,9.856
					c-7.881-2.439-12.295-10.803-9.854-18.684c65.059-210.325,41.157-454.514,26.353-510.942
					c-26.738,27.449-94.995,147.275-127.207,308.34c-38.775,193.855-8.003,313.066-7.686,314.248
					c2.124,7.971-2.612,16.157-10.581,18.284C1697.612,1114.363,1696.314,1114.529,1695.039,1114.529z"/>
			</g>
		</g>
		<g>
			<g>
				<path style="fill:#390075;" d="M2500.581,1157.408c-3.564,0-7.114-1.272-9.927-3.772l-71.826-63.845
					c-3.188-2.834-5.014-6.897-5.014-11.165v-12.769c0-0.874,0.078-1.746,0.229-2.607c1.128-6.37,28.911-157.971,137.817-327.019
					c72.085-111.899,175.288-238.928,229.224-228.55c8.394,1.614,23.174,7.886,27.837,31.789
					c7.739,39.651,11.656,136.516-22.729,248.076c-45.181,146.57-138.394,270.1-277.051,367.161
					C2506.558,1156.516,2503.564,1157.408,2500.581,1157.408z M2443.687,1071.919l57.93,51.489
					c280.703-202.556,296.104-485.359,277.988-578.215c-0.454-2.305-1.758-7.712-4.155-8.174
					c-21.426-4.199-99.321,61.479-198.472,215.388c-100.454,155.923-130.434,300.168-133.291,314.849V1071.919z"/>
			</g>
		</g>
		<g>
			<g>
				<path style="fill:#390075;" d="M1691.746,1930.95c45.018,56.596,96.025,78.452,158.621,33.175
					c7.656-5.406,17.83-3.654,23.76,3.087c1.036,1.015,2.078,2.045,3.213,3.027c29.482,26.915,72.464,28.872,109.509,17.431
					c4.083-1.502,13.982-4.911,18.157-6.318l24.094-10.623c7.817-4.17,15.769-8.352,24.167-12.249
					c-35.261,45.091-93.028,78.935-151.827,63.791c-20.623-5.37-39.934-16.022-54.495-31.818c0,0,23.76,3.086,23.76,3.086
					C1797.101,2045.566,1716.173,2017.807,1691.746,1930.95L1691.746,1930.95z"/>
			</g>
		</g>
		<g>
			<g>
				<path style="fill:#390075;" d="M1859.336,1917.759c-1.309,0-2.612-0.212-3.862-0.64c-11.069-3.782-107.837-38.503-96.416-92.778
					c8.11-38.511,80.083-45.303,126.494-40.466c46.47,4.839,73.12,20.486,73.12,42.927c0,51.323-62.964,81.675-96.255,90.554
					C1861.406,1917.625,1860.371,1917.759,1859.336,1917.759z M1858.638,1806.373c-41.177,0-73.677,10.947-76.191,22.893
					c-5.361,25.459,47.651,53.162,77.305,64.014c30.41-9.036,75.024-33.857,75.024-66.477c0-4.802-15.166-15.352-51.699-19.158
					C1874.717,1806.773,1866.514,1806.373,1858.638,1806.373z"/>
			</g>
		</g>
		<g>
			<g>
				<path style="fill:#390075;" d="M1860.532,1996.758c-9.761,0-17.754-7.832-17.915-17.629l-1.201-73.022
					c-0.166-9.898,7.729-18.054,17.627-18.218c9.8-0.046,18.052,7.729,18.213,17.627l1.201,73.022
					c0.166,9.898-7.73,18.054-17.627,18.218C1860.733,1996.756,1860.63,1996.758,1860.532,1996.758z"/>
			</g>
		</g>
		<g>
			<g>
				<path style="fill:#7BA2FF;" d="M1761.587,2406.26l67.71-109.476c-35.754-4.22-69.559-9.185-101.499-14.89
					C1736.208,2326.093,1748.01,2367.788,1761.587,2406.26z"/>
			</g>
		</g>
		<g>
			<g>
				<path style="fill:#7BA2FF;" d="M2034.344,2558.094c35-30.443,71.975-66.095,105.385-105.283
					c-21.56-23.093-44.37-68.369-59.693-102.256c-45.063,40.996-73.713,66.101-85.417,74.841L2034.344,2558.094z"/>
			</g>
		</g>
		<g>
			<g>
				<path style="fill:#FB132B;" d="M2054.252,2313.015c-76.756-2.626-147.058-7.519-211.364-14.682l-28.731,46.452
					c17.397,29.223,39.316,60.896,45.952,63.257c11.621,3.237,113.769,9.797,125.384,8.927c7.994-5.138,57.179-49.139,89.25-78.323
					c-4.815-11.024-8.501-19.986-10.671-25.375C2060.778,2313.172,2057.568,2313.128,2054.252,2313.015z"/>
			</g>
		</g>
		<g>
			<g>
				<path style="fill:#7BA2FF;" d="M2229.758,2311.671c-32.163,1.766-65.571,2.666-100.26,2.666
					c-16.977,0-34.345-0.291-51.907-0.715c11.053,26.784,42.34,99.011,70.16,129.641
					C2181.505,2402.35,2210.849,2357.868,2229.758,2311.671z"/>
			</g>
		</g>
		<g>
			<g>
				<path style="fill:#FFFFFF;" d="M2269.613,2541.803c103.751-117.9,109.393-220.923,109.065-246.11
					c-42.15,7.045-87.222,12.091-135.172,15.135c-19.95,51.077-52.564,100.128-89.991,144.783c-0.239,0.425-0.423,0.874-0.77,1.246
					c-0.193,0.207-0.453,0.293-0.667,0.467c-36.666,43.496-77.792,82.76-116.042,115.607c-0.503,0.655-1.123,1.182-1.868,1.598
					c-63.362,54.199-118.4,90.563-131.487,98.998l0.905,60.163c116.037-16.507,231.32-85.422,255.423-100.491
					c-7.562-15.837-25.126-55.646-19.431-72.727C2145.915,2541.446,2222.447,2540.492,2269.613,2541.803z"/>
			</g>
		</g>
		<g>
			<g>
				<path style="fill:#FFFFFF;" d="M2107.54,3320.222c5.687,16.918,15.1,53.467,9.727,98.85
					c-7.055,59.584,16.972,111.836,57.132,124.248c42.032,12.986,257.061,28.376,397.412,14.913
					c68.052-6.535,112.615-28.406,125.493-61.571c8.317-21.43,2.132-45.844-16.966-66.99
					c-41.247-45.667-178.113-37.558-185.34-37.108c-0.02,0.001-0.041,0.004-0.06,0.006l-0.172,0.011
					c-11.902,0.762-24.207,2.267-36.276,4.086c-12.115,1.835-24.202,4.035-36.199,6.691c-24.028,5.196-47.739,12.083-70.95,20.573
					c22.416-10.392,45.62-19.299,69.38-26.555c11.867-3.688,23.88-6.929,36-9.816c11.269-2.665,22.502-4.982,34.144-6.812
					c5.947-7.297,31.024-39.785,40.397-79.109c-81.215,24.67-164.173,32.752-239.529,32.752
					C2221.064,3334.392,2157.167,3327.315,2107.54,3320.222z"/>
			</g>
		</g>
		<g>
			<g>
				<path style="fill:#FFFFFF;" d="M2536.911,2762.167c-7.447,25.54-27.665,113.969,23.026,187.395
					c55.103,79.836,135.694,81.751,192.748,56.903c30.351-13.216,52.542-33.479,56.534-51.618c1.576-7.145,0.091-13.336-4.415-18.41
					c-11.699-13.155-20.21-17.444-24.202-18.827c-6.632,7.194-25.537,24.099-56.57,24.099c-3.419,0-6.185-2.766-6.185-6.185
					s2.766-6.185,6.185-6.185c32.169,0,48.634-21.351,49.316-22.257c0.133-0.177,0.35-0.257,0.5-0.417
					c0.237-0.258,0.397-0.565,0.684-0.785c10.512-8.069,16.383-19.832,19.052-26.492c-27.429-11.382-76.385-31.919-125.125-53.465
					C2594.65,2793.291,2556.639,2774.034,2536.911,2762.167z"/>
			</g>
		</g>
		<g>
			<g>
				<path style="fill:#FFFFFF;" d="M1803.804,3299.862c71.779-20.053,92.14-66.005,94.821-72.903l-7.204-479.417
					c-2.26,0.137-4.522,0.206-6.784,0.206c-102.879,0.012-208.699-137.856-213.169-152.376
					c-3.207-10.425,4.071-30.375,15.541-59.627c5.285-13.481,10.745-27.397,11.633-33.866c-4.651-3.129-25.767-4.56-41.362-5.617
					c-29.535-2.011-66.301-4.506-90.461-16.912c-42.046-21.591-5.587-158.123,7.74-203.05
					c-49.981,20.888-127.244,63.005-185.249,139.158l51.406,77.192c1.896,2.845,1.123,6.686-1.715,8.577
					c-1.057,0.701-2.247,1.039-3.425,1.039c-1.999,0-3.962-0.967-5.152-2.754l-53.59-80.473
					c-5.454-5.795-74.035-78.416-106.799-102.138c-37.892,40.25-95.53,55.363-108.451,58.314
					c-48.341,70.891-137.903,121.767-164.154,135.665c47.729,52.018,201.134,214.59,278.6,242.044
					c81.365,28.827,161.035,6.544,177.998,1.14l38.885-230.967c0.568-3.364,3.703-5.629,7.127-5.073
					c3.37,0.568,5.641,3.757,5.074,7.127l-39.464,234.403c-14.044,157.017-37.884,462.779-27.731,497.859
					C1448.418,3293.695,1715.132,3324.65,1803.804,3299.862z M1501.468,3044.945c-0.803,0.344-1.631,0.507-2.452,0.507
					c-2.374,0-4.639-1.377-5.659-3.684l-19.751-44.69c-1.298-2.948-0.121-6.396,2.706-7.937
					c1.486-0.803,149.139-81.467,194.07-143.437c1.275-1.758,3.388-2.724,5.527-2.531c2.162,0.181,4.065,1.48,5.025,3.425
					l30.327,61.451c1.232,2.489,0.652,5.49-1.419,7.345C1708.989,2916.154,1623.088,2992.487,1501.468,3044.945z"/>
			</g>
		</g>
		<g>
			<g>
				<path style="fill:#FFFFFF;" d="M1906.457,3239.482c-9.191,17.516-35.44,54.443-99.318,72.29
					c-21.738,6.076-57.555,8.951-98.766,8.951c-65.025,0-143.463-7.161-201.25-20.193c5.35,17.644,24.966,60.042,94.704,99.213
					c9.968,1.672,19.414,3.863,28.915,6.437c9.993,2.709,19.838,5.87,29.51,9.45c9.685,3.532,19.191,7.514,28.441,11.986
					c9.317,4.324,18.235,9.435,26.997,14.671c-9.262-4.334-18.571-8.485-28.19-11.819c-9.552-3.48-19.272-6.44-29.091-8.934
					c-9.803-2.541-19.704-4.649-29.658-6.294c-9.893-1.647-20.069-2.947-29.753-3.506l-0.189-0.01
					c-0.1-0.005-0.178-0.063-0.278-0.073c-0.047-0.008-0.091,0.008-0.139-0.001c-1.504-0.278-150.951-28.104-173.184,60.08
					c-7.447,29.53-5.726,50.645,5.249,64.543c21.949,27.784,83.068,29.27,154.666,28.315c26.823-0.338,59.077,0.308,93.245,1.002
					c112.688,2.283,267.015,5.442,296.236-31.384c20.276-25.543,10.087-53.556-0.695-83.207
					c-8.812-24.232-17.921-49.286-9.918-73.688c12.43-37.878,23.556-65.606,28.469-77.396
					C1950.834,3285.082,1919.449,3253.987,1906.457,3239.482z"/>
			</g>
		</g>
		<g>
			<g>
				<path style="fill:#FFFFFF;" d="M2531.941,2256.798c-42.457,15.303-89.422,27.579-140.878,36.784
					c0.936,24.377-1.999,132.466-114.112,258.591c-1.214,1.371-3.032,1.981-4.802,2.078c-60.49-1.818-115.865,2.953-120.944,10.371
					c-3.461,10.461,10.359,46.145,21.315,68.064c1.401,2.802,0.483,6.209-2.126,7.93c-1.341,0.882-133.455,87.099-266.621,105.524
					l7.207,479.628c8.066,9.679,54.053,61.867,113.114,69.127c8.166,1.003,19.11,2.772,32.96,5.013
					c102.758,16.64,342.696,55.477,548.279-39.52c2.609-24.559,17.679-173.645,7.5-245.632
					c-22.667-12.141-44.261-30.906-63.08-58.167c-56.956-82.512-30.792-179.376-23.683-201.45
					c-10.017-7.175-10.516-10.34-10.866-12.685c-3.026-20.391,27.331-90.334,36.578-111.021l-94.405-59.433
					c-2.887-1.824-3.757-5.641-1.939-8.535c1.824-2.887,5.641-3.745,8.534-1.939l94.16,59.281l66.799-88.055
					c2.06-2.712,5.931-3.261,8.667-1.19c2.718,2.066,3.256,5.943,1.19,8.667l-69.801,92.014
					c-15.582,34.231-39.121,92.787-37.608,107.896c1.067,1.673,3.879,3.991,8.063,6.809c0.036,0.012,0.073,0.003,0.109,0.017
					c0.914,0.337,1.653,0.901,2.283,1.561c37.069,23.687,162.281,79.377,279.053,127.108
					c18.392-17.764,122.889-130.095,69.158-340.806C2827.601,2305.609,2535.508,2257.359,2531.941,2256.798z M2511.442,3028.715
					c2.555,1.897,3.255,5.418,1.619,8.148l-31.124,51.877c-0.864,1.444-2.283,2.47-3.926,2.845
					c-0.453,0.103-0.918,0.157-1.377,0.157c-1.196,0-2.374-0.344-3.395-1.015c-1.341-0.882-135.187-88.951-213.809-163.484
					c-2.313-2.187-2.585-5.768-0.634-8.281l42.171-54.269c1.039-1.335,2.567-2.18,4.24-2.355c1.746-0.187,3.352,0.338,4.639,1.425
					C2311.337,2865.02,2459.534,2990.174,2511.442,3028.715z"/>
			</g>
		</g>
		<g>
			<g>
				<path style="fill:#FFFFFF;" d="M2272.023,2922.104c69.158,64.422,177.418,137.868,202.635,154.72l24.927-41.543
					c-49.8-37.665-167.301-136.431-192.796-157.915L2272.023,2922.104z"/>
			</g>
		</g>
		<g>
			<g>
				<path style="fill:#FFFFFF;" d="M1152.701,2366.269c0.906-1.365,2.325-2.313,3.932-2.634
					c0.678-0.137,67.047-13.902,106.11-56.973c-2.257-22.152-5.036-45.904-6.185-50.858c-0.707-1.147-1.359-2.657-2.205-4.603
					c-4.119-9.519-15.07-34.802-31.124-40.534c-5.454-1.951-11.035-1.383-17.057,1.728c-36.409,18.79-69.786,40.19-70.118,40.401
					c-2.809,1.806-6.541,1.051-8.444-1.691c-24.462-35.551-96.187-127.806-133.767-127.806c-17.377,0-40.444,3.739-51.642,21.539
					c-11.351,18.045-7.955,47.797,9.718,86.169c15.402-2.717,62.914-7.807,95.027,25.033c30.701,31.384,60.509,74.89,18.144,133.26
					c-35.944,49.516-74.811,73.814-118.323,73.814c-0.293,0-0.593-0.032-0.888-0.033c19.307,18.384,35.657,30.618,36.083,30.934
					c0.344,0.254,0.658,0.544,0.942,0.864c0.193,0.218,2.277,2.551,5.891,6.536
					C1009.607,2490.498,1104.978,2437.852,1152.701,2366.269z"/>
			</g>
		</g>
		<g>
			<g>
				<path style="fill:#7BA2FF;" d="M1851.206,2416.792c-12.891-10.057-32.424-40.385-44.38-60.153l-39.87,64.463
					c15.887,42.687,33.726,81.124,51.103,114.182L1851.206,2416.792z"/>
			</g>
		</g>
		<g>
			<g>
				<path style="fill:#FFFFFF;" d="M1572.474,2468.344c21.889,11.24,57.241,13.645,85.647,15.571
					c28.944,1.969,44.327,3.316,50.361,10.256c1.903,2.187,2.802,4.832,2.597,7.647c-0.556,7.858-6.119,22.028-12.551,38.445
					c-6.934,17.679-17.413,44.4-15.233,51.472c4.225,13.49,111.531,149.521,207.94,143.313l-0.942-62.668
					c-10.499-13.259-81.84-106.202-133.61-243.574c-0.476-0.15-0.947-0.335-1.391-0.61c-2.901-1.797-3.793-5.599-2.011-8.503
					c-15.674-42.929-29.288-89.994-38.531-140.173c-32.155-6.048-62.298-12.901-90.569-20.537
					c-3.089,0.791-15.982,4.27-34.91,11.449C1567.355,2340.506,1544.002,2453.728,1572.474,2468.344z"/>
			</g>
		</g>
		<g>
			<g>
				<path style="fill:#FFFFFF;" d="M1050.747,2387.752c-1.305-9.996-10.896-51.947-80.622-67.888
					c-3.328-0.761-5.412-4.077-4.651-7.405c0.755-3.334,4.053-5.442,7.405-4.651c61.149,13.978,80.942,47.083,87.352,66.594
					c23.249-37.104,16.359-70.375-22.126-109.713c-30.26-30.938-78.816-22.606-86.982-20.931
					c-7.426,6.208-54.671,47.599-67.352,105.715c-7.103,32.546,20.838,71.145,48.708,100.267
					C975.878,2455.353,1014.643,2435.048,1050.747,2387.752z"/>
			</g>
		</g>
		<g>
			<g>
				<path style="fill:#FB132B;" d="M2024.079,2566.94l-41.19-137.588c-0.695,0.01-1.383,0.022-2.168,0.022
					c-25.117,0-95.45-5.303-117.85-8.367l-36.361,129.978c32.353,58.996,61.597,98.406,71.312,110.952
					C1913.223,2651.928,1964.847,2617.348,2024.079,2566.94z"/>
			</g>
		</g>
		<g>
			<g>
				<path style="fill:#FFFFFF;" d="M1487.213,2997.259l14.973,33.878c103.151-45.529,178.983-107.524,195.87-121.899l-23.852-48.326
					C1627.117,2917.604,1512.919,2982.944,1487.213,2997.259z"/>
			</g>
		</g>
		<g>
			<g>
				<path style="fill:none;" d="M918.131,2357.71c3.281,33.707,68.978,83.808,69.41,84.137c22.123-9.776,43.079-27.73,63.205-54.095
					c-1.305-9.996-10.896-51.947-80.622-67.888c-3.328-0.761-5.412-4.077-4.651-7.405c0.755-3.334,4.053-5.442,7.405-4.651
					c61.149,13.978,80.942,47.083,87.352,66.594c23.249-37.104,16.359-70.375-22.126-109.713
					c-30.26-30.938-78.816-22.606-86.982-20.931c-2.232,1.866-8.096,6.966-15.506,14.691
					C935.496,2258.827,914.849,2323.991,918.131,2357.71z"/>
			</g>
		</g>
		<g>
			<g>
				<path style="fill:none;" d="M1775.942,3257.318c87.131-24.162,117.631-64.419,122.074-70.904l-6.594-438.871
					c-2.26,0.137-4.522,0.206-6.784,0.206c-102.879,0.012-208.699-137.856-213.169-152.376
					c-3.207-10.425,4.071-30.375,15.541-59.627c5.285-13.481,10.745-27.397,11.633-33.866c-4.651-3.129-25.767-4.56-41.362-5.617
					c-29.535-2.011-66.301-4.506-90.461-16.912c-42.046-21.591-5.587-158.123,7.74-203.05
					c-49.981,20.888-127.244,63.005-185.249,139.158l51.406,77.192c1.896,2.845,1.123,6.686-1.715,8.577
					c-1.057,0.701-2.247,1.039-3.425,1.039c-1.999,0-3.962-0.967-5.152-2.754l-53.59-80.473
					c-5.454-5.795-74.035-78.416-106.799-102.138c-37.892,40.25-95.53,55.363-108.451,58.314
					c-3.301,4.841-6.809,9.579-10.461,14.227l-0.134,0.19l-0.056,0.048c-16.723,21.24-36.741,40.413-56.906,57.005
					c15.189,19.013,154.768,192.022,229.415,223.484c64.73,27.281,123.003,19.893,141.961,16.331l27.51-163.403
					c0.568-3.364,3.703-5.629,7.127-5.073c3.37,0.568,5.641,3.757,5.074,7.127l-39.464,234.403
					c-11.192,125.123-28.604,344.7-30.078,446.492C1435.574,3206.046,1680.973,3283.654,1775.942,3257.318z M1709.841,2915.393
					c-0.852,0.761-86.752,77.094-208.373,129.551c-0.803,0.344-1.631,0.507-2.452,0.507c-2.374,0-4.639-1.377-5.659-3.684
					l-19.751-44.69c-1.298-2.948-0.121-6.396,2.706-7.937c1.486-0.803,149.139-81.467,194.07-143.437
					c1.275-1.758,3.388-2.724,5.527-2.531c2.162,0.181,4.065,1.48,5.025,3.425l30.327,61.451
					C1712.492,2910.537,1711.912,2913.539,1709.841,2915.393z"/>
			</g>
		</g>
		<g>
			<g>
				<path style="fill:none;" d="M1487.213,2997.259l5.077,11.487c12.651-6.194,58.171-29.024,84.537-49.501
					c0,0,50.766-2.204,69.73-13.219c4.92-2.857,8.677-4.575,11.573-5.576c19.962-14.581,33.833-26.022,39.927-31.21l-23.852-48.326
					C1627.117,2917.604,1512.919,2982.944,1487.213,2997.259z"/>
			</g>
		</g>
		<g>
			<g>
				<path style="fill:none;" d="M1906.312,3239.744c0.094-0.166,0.145-0.262,0.145-0.262
					C1906.415,3239.565,1906.357,3239.661,1906.312,3239.744z"/>
			</g>
		</g>
		<g>
			<g>
				<path style="fill:none;" d="M2143.701,2595.317c-3.36-10.6-5.631-21.083-5.108-29.05c0.001-2.596,0.269-4.726,0.986-5.794
					c0.562-1.687,1.7-3.224,3.295-4.637c1.625-1.8,3.878-3.339,8.458-4.841l0,0c11.752-4.716,30.777-7.266,51.573-8.522
					c0.017-0.007,46.692-18.978,89.182-80.616c35.24-51.125,51.711-128.615,56.311-153.601c-1.178-0.103-2.38-0.207-3.621-0.311
					c-27.755,4.868-64.912,11.027-107.299,17.143c-20.169,45.937-50.034,90.045-83.96,130.524c-0.239,0.425-0.423,0.874-0.77,1.246
					c-0.193,0.207-0.453,0.293-0.667,0.467c-36.666,43.496-77.792,82.76-116.042,115.607c-0.503,0.655-1.123,1.182-1.868,1.598
					c-63.362,54.199-118.4,90.563-131.487,98.998l0.575,38.294c64.25-8.858,220.322-86.329,232.607-99.732
					C2142.281,2605.091,2143.84,2599.502,2143.701,2595.317z"/>
			</g>
		</g>
		<g>
			<g>
				<path style="fill:none;" d="M1046.948,2256.04c20.222,20.672,40.045,46.604,39.124,78.577l6.535-6.535
					c0.897,1.197,37.708,5.686,83.497-8.978c38.455-12.316,72.169-43.54,82.011-53.255c-0.64-4.849-1.184-8.441-1.555-10.045
					c-0.707-1.147-1.359-2.657-2.205-4.603c-4.119-9.519-15.07-34.802-31.124-40.534c-5.454-1.951-11.035-1.383-17.057,1.728
					c-36.409,18.79-69.786,40.19-70.118,40.401c-2.809,1.806-6.541,1.051-8.444-1.691
					c-24.462-35.551-96.187-127.806-133.767-127.806c-17.377,0-40.444,3.739-51.642,21.539
					c-11.351,18.045-7.955,47.797,9.718,86.169C967.323,2228.29,1014.834,2223.2,1046.948,2256.04z"/>
			</g>
		</g>
		<g>
			<g>
				<path style="fill:none;" d="M1597.177,2428.936c26.336,16.76,126.891,11.561,134.074,43.489
					c7.181,31.928-16.76,92.979,0,121.709c16.759,28.73,106.214,116.72,159.647,118.514l-0.605-40.267
					c-10.499-13.259-81.84-106.202-133.61-243.574c-0.476-0.15-0.947-0.335-1.391-0.61c-2.901-1.797-3.793-5.599-2.011-8.503
					c-12.112-33.175-22.967-68.841-31.553-106.483c-56.928-19.471-96.633-41.027-111.972-49.966
					c-5.575,1.792-12.441,4.137-20.485,7.188c-4.213,13.469-8.474,28.537-12.415,44.188
					C1576.846,2314.756,1570.859,2412.189,1597.177,2428.936z"/>
			</g>
		</g>
		<g>
			<g>
				<path style="fill:none;" d="M1804.944,2336.157c-25.019-5.276-48.258-11.625-69.413-18.386
					c7.358,30.991,16.217,60.61,26.055,88.49L1804.944,2336.157z"/>
			</g>
		</g>
		<g>
			<g>
				<path style="fill:none;" d="M2549.753,2956.592c-56.956-82.512-30.792-179.376-23.683-201.45
					c-10.017-7.175-10.516-10.34-10.866-12.685c-3.026-20.391,27.331-90.334,36.578-111.021l-94.405-59.433
					c-2.887-1.824-3.757-5.641-1.939-8.535c1.039-1.644,2.733-2.54,4.525-2.75c-0.018-0.014-0.071-0.055-0.071-0.055
					s-25.955-22.793-20.768-27.182c5.188-4.389,66.639,11.971,114.122,19.553c26.971,4.306,45.294,2.561,56.111,0.25l15.574-20.529
					c2.06-2.712,5.931-3.261,8.667-1.19c2.718,2.066,3.256,5.943,1.19,8.667l-69.801,92.014
					c-10.221,22.454-23.826,55.317-31.579,79.576c27.782,9.412,220.992,74.122,262.446,67.46
					c44.691-7.182,48.682-264.59,48.682-264.59s53.427,120.66,31.147,269.916c23.367-56.912,38.367-139.951,10.361-249.776
					c-49.171-192.853-263.71-257.599-332.683-273.626c-46.099,19.052-99.904,34.921-162.397,46.564
					c-1.723,39.513-16.918,135.171-114.015,244.404c-1.214,1.371-3.032,1.981-4.802,2.078
					c-60.49-1.818-115.865,2.953-120.944,10.371c-3.461,10.461,10.359,46.145,21.315,68.064c1.401,2.802,0.483,6.209-2.126,7.93
					c-1.277,0.84-121.301,79.119-247.823,102.439l16.972,441.24c0,0,70.627,63.578,268.146,78.476
					c197.518,14.897,401.963-48.168,401.963-48.168c4.769-56.534,10.496-148.104,3.18-199.845
					C2590.167,3002.617,2568.572,2983.852,2549.753,2956.592z M2513.06,3036.863l-31.124,51.877
					c-0.864,1.444-2.283,2.47-3.926,2.845c-0.453,0.103-0.918,0.157-1.377,0.157c-1.196,0-2.374-0.344-3.395-1.015
					c-1.341-0.882-135.187-88.951-213.809-163.484c-2.313-2.187-2.585-5.768-0.634-8.281l42.171-54.269
					c1.039-1.335,2.567-2.18,4.24-2.355c1.746-0.187,3.352,0.338,4.639,1.425c1.492,1.256,149.689,126.411,201.596,164.952
					C2513.997,3030.612,2514.697,3034.133,2513.06,3036.863z"/>
			</g>
		</g>
		<g>
			<g>
				<path style="fill:none;" d="M1778.547,2431.929c0,0,22.805,31.922,49.664,67.067l22.996-82.204
					c-12.891-10.057-32.424-40.385-44.38-60.153l-39.87,64.463c1.652,4.44,3.337,8.805,5.03,13.152L1778.547,2431.929z"/>
			</g>
		</g>
		<g>
			<g>
				<path style="fill:none;" d="M1860.109,2408.042c11.621,3.237,113.769,9.797,125.384,8.927
					c7.458-4.794,50.76-43.406,82.576-72.262c-43.388,3.583-86.877,5.849-127.525,5.849c-43.899,0-85.097-4.649-122.645-11.82
					l-3.742,6.049C1831.554,2374.008,1853.473,2405.681,1860.109,2408.042z"/>
			</g>
		</g>
		<g>
			<g>
				<path style="fill:none;" d="M2536.911,2762.167c-2.928,10.039-7.813,29.814-9.605,54.553
					c0.089,0.322,32.459,119.226,129.29,152.102c86.597,29.399,133.933-25.661,143.072-37.779
					c-9.045-8.946-15.687-12.263-19.067-13.433c-6.632,7.194-25.537,24.099-56.57,24.099c-3.419,0-6.185-2.766-6.185-6.185
					s2.766-6.185,6.185-6.185c32.169,0,48.634-21.351,49.316-22.257c0.133-0.177,0.35-0.257,0.5-0.417
					c0.237-0.258,0.397-0.565,0.684-0.785c10.512-8.069,16.383-19.832,19.052-26.492c-27.429-11.382-76.385-31.919-125.125-53.465
					C2594.65,2793.291,2556.639,2774.034,2536.911,2762.167z"/>
			</g>
		</g>
		<g>
			<g>
				<path style="fill:none;" d="M2272.023,2922.104c14.674,13.67,31.116,27.745,48.146,41.6
					c0.355,0.13,98.828,36.253,110.776,42.825c9.409,5.175,46.325,29.877,61.744,40.245l6.896-11.493
					c-49.8-37.665-167.301-136.431-192.796-157.915L2272.023,2922.104z"/>
			</g>
		</g>
		<g>
			<g>
				<path style="fill:none;" d="M1910.214,2589.944c12.104,1.729,66.076-19.395,109.512-37.546l-36.836-123.046
					c-0.695,0.01-1.383,0.022-2.168,0.022c-25.117,0-95.45-5.303-117.85-8.367l-25.24,90.227
					C1867.621,2549.893,1899.867,2588.466,1910.214,2589.944z"/>
			</g>
		</g>
		<g>
			<g>
				<path style="fill:none;" d="M2147.751,2443.264c29.966-36.322,56.413-75.463,75.213-116.113
					c-41.208,5.767-86.658,11.351-132.801,15.62C2104.945,2375.679,2127.274,2420.718,2147.751,2443.264z"/>
			</g>
		</g>
		<g>
			<g>
				<path style="fill:none;" d="M2263.659,3334.007c0.002,0,0.024,0.015,0.024,0.015l-21.425-0.752c0,0-30.577,66.9-18.608,121.168
					c11.971,54.268,164.401,60.652,290.493,59.854c107.783-0.682,170.625-29.335,186.614-37.648
					c-0.192-15.834-7.074-32.195-20.42-46.971c-41.247-45.667-178.113-37.558-185.34-37.108c-0.02,0.001-0.041,0.004-0.06,0.006
					l-0.172,0.011c-11.902,0.762-24.207,2.267-36.276,4.086c-12.115,1.835-24.202,4.035-36.199,6.691
					c-24.028,5.196-47.739,12.083-70.95,20.573c22.416-10.392,45.62-19.299,69.38-26.555c11.867-3.688,23.88-6.929,36-9.816
					c11.269-2.665,22.502-4.982,34.144-6.812c5.947-7.297,31.024-39.785,40.397-79.109c-81.215,24.67-164.173,32.752-239.529,32.752
					C2282.237,3334.392,2272.891,3334.246,2263.659,3334.007z"/>
			</g>
		</g>
		<g>
			<g>
				<path style="fill:none;" d="M2139.729,2452.811c-21.56-23.093-44.37-68.369-59.693-102.256
					c-45.063,40.996-73.713,66.101-85.417,74.841l36.575,122.179c10.959-4.64,20.829-8.9,28.619-12.295
					C2086.892,2510.316,2114.337,2482.593,2139.729,2452.811z"/>
			</g>
		</g>
		<g>
			<g>
				<path style="fill:none;" d="M1438.363,3450.847c-10.774,81.003,110.131,82.599,289.695,69.83
					c179.562-12.769,187.543-23.144,170.567-117.521c-16.975-94.377-21.332-115.114-21.332-115.114s1.59-9.124,1.786-14.167
					c-15.758,14.184-38.731,28.617-71.942,37.896c-21.738,6.076-57.555,8.951-98.766,8.951c-65.025,0-143.463-7.161-201.25-20.193
					c5.35,17.644,24.966,60.042,94.704,99.213c9.968,1.672,19.414,3.863,28.915,6.437c9.993,2.709,19.838,5.87,29.51,9.45
					c9.685,3.532,19.191,7.514,28.441,11.986c9.317,4.324,18.235,9.435,26.997,14.671c-9.262-4.334-18.571-8.485-28.19-11.819
					c-9.552-3.48-19.272-6.44-29.091-8.934c-9.803-2.541-19.704-4.649-29.658-6.294c-9.893-1.647-20.069-2.947-29.753-3.506
					l-0.189-0.01c-0.1-0.005-0.178-0.063-0.278-0.073c-0.047-0.008-0.091,0.008-0.139-0.001
					c-1.438-0.266-137.814-25.594-169.386,49.024C1434.08,3454.39,1438.363,3450.847,1438.363,3450.847z"/>
			</g>
		</g>
		<g>
			<g>
				<path style="fill:none;" d="M1901.963,2659.221c-2.081,0.314-4.047,0.45-5.901,0.423c0.633,0.829,1.238,1.619,1.761,2.294
					C1898.981,2661.185,1900.408,2660.248,1901.963,2659.221z"/>
			</g>
		</g>
		<g style="opacity:0.25;">
			<g>
				<path style="fill:#021168;" d="M2344.775,2307.944c1.241,0.104,2.443,0.208,3.621,0.311c0.06-0.325,0.125-0.672,0.181-0.979
					C2347.334,2307.496,2346.058,2307.719,2344.775,2307.944z"/>
			</g>
		</g>
		<g style="opacity:0.25;">
			<g>
				<path style="fill:#021168;" d="M2531.941,2256.798c-42.457,15.303-89.422,27.579-140.878,36.784
					c0.05,1.322,0.084,2.935,0.097,4.74c3.665,0.004,5.668,0.01,5.668,0.01s-1.986,0.397-5.664,1.107
					c0,2.402-0.06,5.203-0.198,8.329c62.493-11.643,116.298-27.511,162.397-46.564
					C2540.356,2258.184,2532.508,2256.887,2531.941,2256.798z"/>
			</g>
		</g>
		<g style="opacity:0.3;">
			<g>
				<path style="fill:#390075;" d="M918.131,2357.71c-3.283-33.719,17.365-98.883,17.486-99.262
					c-17.237,17.969-42.977,50.379-51.846,91.024c-7.103,32.546,20.838,71.145,48.708,100.267
					c19.206,2.485,37.501-0.13,55.062-7.891C987.109,2441.518,921.413,2391.417,918.131,2357.71z"/>
			</g>
		</g>
		<g style="opacity:0.25;">
			<g>
				<path style="fill:#021168;" d="M1151.125,2389.441c-0.062,0.08-0.127,0.159-0.19,0.238l0.056-0.048L1151.125,2389.441z"/>
			</g>
		</g>
		<g style="opacity:0.3;">
			<g>
				<path style="fill:#390075;" d="M1323.444,2670.169c-74.646-31.462-214.226-204.471-229.415-223.484
					c-39.93,32.858-80.365,55.602-96.597,64.195c47.729,52.018,201.134,214.59,278.6,242.044
					c81.365,28.827,161.035,6.544,177.998,1.14l11.375-67.564C1446.446,2690.061,1388.174,2697.45,1323.444,2670.169z"/>
			</g>
		</g>
		<g style="opacity:0.3;">
			<g>
				<path style="fill:#390075;" d="M1092.607,2328.082l-6.535,6.535c-0.477,16.569-6.52,34.758-20.98,54.683
					c-35.944,49.516-74.811,73.814-118.323,73.814c-0.293,0-0.593-0.032-0.888-0.033c19.307,18.384,35.657,30.618,36.083,30.934
					c0.344,0.254,0.658,0.544,0.942,0.864c0.193,0.218,2.277,2.551,5.891,6.536c20.811-10.917,116.182-63.563,163.905-135.145
					c0.906-1.365,2.325-2.313,3.932-2.634c0.678-0.137,67.047-13.902,106.11-56.973c-1.527-14.983-3.29-30.677-4.63-40.813
					c-9.842,9.715-43.556,40.938-82.011,53.255C1130.314,2333.768,1093.504,2329.279,1092.607,2328.082z"/>
			</g>
		</g>
		<g style="opacity:0.3;">
			<g>
				<path style="fill:#390075;" d="M1576.827,2959.244c-26.366,20.478-71.886,43.307-84.537,49.501l9.896,22.392
					c65.923-29.098,120.593-64.869,155.943-90.689c-2.896,1.001-6.653,2.719-11.573,5.576
					C1627.593,2957.04,1576.827,2959.244,1576.827,2959.244z"/>
			</g>
		</g>
		<g style="opacity:0.3;">
			<g>
				<path style="fill:#390075;" d="M2207.69,3262.772c-197.519-14.898-268.146-78.476-268.146-78.476l-16.972-441.24
					c-6.256,1.154-12.524,2.217-18.798,3.085l7.207,479.628c8.066,9.679,54.053,61.867,113.114,69.127
					c8.166,1.003,19.11,2.772,32.96,5.013c102.758,16.64,342.696,55.477,548.279-39.52c0.734-6.907,2.454-23.665,4.32-45.787
					C2609.653,3214.604,2405.208,3277.668,2207.69,3262.772z"/>
			</g>
		</g>
		<g style="opacity:0.3;">
			<g>
				<path style="fill:#390075;" d="M1437.921,3257.413c10.497,36.282,277.211,67.237,365.883,42.449
					c71.779-20.053,92.14-66.005,94.821-72.903l-0.61-40.545c-4.442,6.485-34.943,46.742-122.074,70.904
					c-94.969,26.336-340.368-51.272-340.368-51.272C1435.198,3231.993,1435.858,3250.287,1437.921,3257.413z"/>
			</g>
		</g>
		<g style="opacity:0.3;">
			<g>
				<path style="fill:#390075;" d="M2068.068,2344.706c2.288-2.073,4.524-4.104,6.674-6.061
					c-4.815-11.024-8.501-19.986-10.671-25.375c-3.293-0.098-6.503-0.142-9.819-0.255c-76.756-2.626-147.058-7.519-211.364-14.682
					l-24.989,40.403c37.547,7.171,78.746,11.82,122.645,11.82C1981.191,2350.555,2024.68,2348.289,2068.068,2344.706z"/>
			</g>
		</g>
		<g style="opacity:0.3;">
			<g>
				<path style="fill:#390075;" d="M1714.75,2279.521c-32.155-6.048-62.298-12.901-90.569-20.537
					c-1.777,0.455-6.881,1.835-14.425,4.26c15.339,8.939,55.044,30.494,111.972,49.966
					C1719.203,2302.142,1716.85,2290.923,1714.75,2279.521z"/>
			</g>
		</g>
		<g style="opacity:0.3;">
			<g>
				<path style="fill:#390075;" d="M2077.59,2313.622c2.917,7.069,7.272,17.348,12.572,29.149
					c46.142-4.27,91.593-9.854,132.801-15.62c2.377-5.14,4.672-10.295,6.795-15.48c-32.163,1.766-65.571,2.666-100.26,2.666
					C2112.521,2314.337,2095.153,2314.047,2077.59,2313.622z"/>
			</g>
		</g>
		<g style="opacity:0.25;">
			<g>
				<path style="fill:#021168;" d="M2306.448,2305.438c-20.424,2.183-41.347,4.02-62.941,5.391
					c-1.866,4.778-3.95,9.519-6.031,14.259c42.387-6.116,79.543-12.275,107.299-17.143
					C2333.894,2307.031,2320.695,2306.094,2306.448,2305.438z"/>
			</g>
		</g>
		<g style="opacity:0.3;">
			<g>
				<path style="fill:#390075;" d="M1829.296,2296.784c-35.754-4.22-69.559-9.185-101.499-14.89
					c2.316,12.169,4.938,24.102,7.734,35.876c21.155,6.761,44.394,13.111,69.413,18.386L1829.296,2296.784z"/>
			</g>
		</g>
		<g style="opacity:0.25;">
			<g>
				<path style="fill:#021168;" d="M2391.16,2298.323c0.001,0.371,0.006,0.726,0.004,1.118c3.678-0.71,5.664-1.107,5.664-1.107
					S2394.825,2298.327,2391.16,2298.323z"/>
			</g>
		</g>
		<g style="opacity:0.25;">
			<g>
				<path style="fill:#021168;" d="M2391.16,2298.323c0.001,0.371,0.006,0.726,0.004,1.118c3.678-0.71,5.664-1.107,5.664-1.107
					S2394.825,2298.327,2391.16,2298.323z"/>
			</g>
		</g>
		<g style="opacity:0.25;">
			<g>
				<path style="fill:#021168;" d="M2192.619,2300.843c-2.818,0.097-5.62,0.196-8.347,0.301
					C2187.083,2301.063,2189.825,2300.935,2192.619,2300.843z"/>
			</g>
		</g>
		<g style="opacity:0.25;">
			<g>
				<path style="fill:#021168;" d="M2192.619,2300.843c-2.818,0.097-5.62,0.196-8.347,0.301
					C2187.083,2301.063,2189.825,2300.935,2192.619,2300.843z"/>
			</g>
		</g>
		<g style="opacity:0.25;">
			<g>
				<path style="fill:#021168;" d="M2348.577,2307.277c0.828-4.553,1.223-7.136,1.223-7.136l0.116-0.057
					c-14.168,2.005-28.682,3.774-43.468,5.354c14.247,0.657,27.446,1.594,38.327,2.507
					C2346.058,2307.719,2347.334,2307.496,2348.577,2307.277z"/>
			</g>
		</g>
		<g style="opacity:0.25;">
			<g>
				<path style="fill:#021168;" d="M2348.577,2307.277c0.828-4.553,1.223-7.136,1.223-7.136l0.116-0.057
					c-14.168,2.005-28.682,3.774-43.468,5.354c14.247,0.657,27.446,1.594,38.327,2.507
					C2346.058,2307.719,2347.334,2307.496,2348.577,2307.277z"/>
			</g>
		</g>
		<g style="opacity:0.3;">
			<g>
				<path style="fill:#390075;" d="M1731.251,2594.134c-16.76-28.73,7.181-89.781,0-121.709
					c-7.183-31.927-107.738-26.729-134.074-43.489c-26.318-16.747-20.33-114.18-20.321-114.315
					c-16.56,65.772-27.381,141.916-4.382,153.723c21.889,11.24,57.241,13.645,85.647,15.571
					c28.944,1.969,44.327,3.316,50.361,10.256c1.903,2.187,2.802,4.832,2.597,7.647c-0.556,7.858-6.119,22.028-12.551,38.445
					c-6.934,17.679-17.413,44.4-15.233,51.472c4.225,13.49,111.531,149.521,207.94,143.313l-0.337-22.401
					C1837.465,2710.854,1748.01,2622.864,1731.251,2594.134z"/>
			</g>
		</g>
		<g style="opacity:0.25;">
			<g>
				<path style="fill:#021168;" d="M2142.873,2555.835c2.061-1.826,4.938-3.429,8.458-4.841l0,0
					C2146.751,2552.497,2144.498,2554.035,2142.873,2555.835z"/>
			</g>
		</g>
		<g style="opacity:0.25;">
			<g>
				<path style="fill:#021168;" d="M2138.593,2566.267c0.137-2.109,0.418-4.091,0.986-5.794
					C2138.861,2561.541,2138.594,2563.67,2138.593,2566.267z"/>
			</g>
		</g>
		<g style="opacity:0.3;">
			<g>
				<path style="fill:#390075;" d="M2159.009,2633.2c-3.959-8.292-10.639-23.151-15.308-37.883
					c0.139,4.185-1.419,9.774-7.837,16.773c-12.285,13.404-168.357,90.874-232.607,99.732l0.329,21.869
					C2019.623,2717.184,2134.907,2648.269,2159.009,2633.2z"/>
			</g>
		</g>
		<g style="opacity:0.3;">
			<g>
				<path style="fill:#390075;" d="M2348.396,2308.255c-4.599,24.986-21.07,102.476-56.311,153.601
					c-42.49,61.639-89.165,80.609-89.182,80.616c22.556-1.362,47.154-1.213,66.71-0.67
					c89.707-101.941,106.056-192.714,108.629-231.714c-1.403,0.244-2.745,0.518-4.159,0.758
					C2374.083,2310.846,2364.047,2309.622,2348.396,2308.255z"/>
			</g>
		</g>
		<g style="opacity:0.25;">
			<g>
				<path style="fill:#021168;" d="M2348.396,2308.255c15.651,1.367,25.688,2.591,25.688,2.591c1.413-0.24,2.756-0.514,4.159-0.758
					c0.204-3.08,0.329-5.854,0.389-8.267c-7.819,1.462-17.967,3.321-30.055,5.456
					C2348.521,2307.583,2348.456,2307.93,2348.396,2308.255z"/>
			</g>
		</g>
		<g style="opacity:0.25;">
			<g>
				<path style="fill:#021168;" d="M2348.396,2308.255c15.651,1.367,25.688,2.591,25.688,2.591c1.413-0.24,2.756-0.514,4.159-0.758
					c0.204-3.08,0.329-5.854,0.389-8.267c-7.819,1.462-17.967,3.321-30.055,5.456
					C2348.521,2307.583,2348.456,2307.93,2348.396,2308.255z"/>
			</g>
		</g>
		<g style="opacity:0.25;">
			<g>
				<path style="fill:#021168;" d="M2378.678,2295.693c-5.696,0.952-11.58,1.774-17.382,2.653
					c6.603-0.017,12.406-0.025,17.392-0.027C2378.694,2297.368,2378.689,2296.49,2378.678,2295.693z"/>
			</g>
		</g>
		<g style="opacity:0.25;">
			<g>
				<path style="fill:#021168;" d="M2378.678,2295.693c-5.696,0.952-11.58,1.774-17.382,2.653
					c6.603-0.017,12.406-0.025,17.392-0.027C2378.694,2297.368,2378.689,2296.49,2378.678,2295.693z"/>
			</g>
		</g>
		<g style="opacity:0.25;">
			<g>
				<path style="fill:#021168;" d="M2348.577,2307.277c12.088-2.134,22.236-3.994,30.055-5.456c0.032-1.253,0.052-2.437,0.057-3.502
					c-4.986,0.002-10.789,0.01-17.392,0.027c-3.799,0.575-7.536,1.193-11.381,1.737l-0.116,0.057
					C2349.8,2300.14,2349.404,2302.723,2348.577,2307.277z"/>
			</g>
		</g>
		<g style="opacity:0.25;">
			<g>
				<path style="fill:#021168;" d="M2348.577,2307.277c12.088-2.134,22.236-3.994,30.055-5.456c0.032-1.253,0.052-2.437,0.057-3.502
					c-4.986,0.002-10.789,0.01-17.392,0.027c-3.799,0.575-7.536,1.193-11.381,1.737l-0.116,0.057
					C2349.8,2300.14,2349.404,2302.723,2348.577,2307.277z"/>
			</g>
		</g>
		<g style="opacity:0.25;">
			<g>
				<path style="fill:#021168;" d="M2348.577,2307.277c12.088-2.134,22.236-3.994,30.055-5.456c0.032-1.253,0.052-2.437,0.057-3.502
					c-4.986,0.002-10.789,0.01-17.392,0.027c-3.799,0.575-7.536,1.193-11.381,1.737l-0.116,0.057
					C2349.8,2300.14,2349.404,2302.723,2348.577,2307.277z"/>
			</g>
		</g>
		<g style="opacity:0.3;">
			<g>
				<path style="fill:#390075;" d="M2553.247,2553.034c-47.483-7.582-108.934-23.942-114.122-19.553
					c-5.187,4.389,20.768,27.182,20.768,27.182s0.053,0.041,0.071,0.055c1.354-0.16,2.763,0.033,4.009,0.811l94.16,59.281
					l51.225-67.526C2598.541,2555.595,2580.219,2557.34,2553.247,2553.034z"/>
			</g>
		</g>
		<g style="opacity:0.3;">
			<g>
				<path style="fill:#390075;" d="M2844.539,2514.692c0,0-3.991,257.408-48.682,264.59c-41.454,6.662-234.664-58.047-262.446-67.46
					c-4.065,12.723-6.55,23.123-6.029,28.321c1.067,1.673,3.879,3.991,8.063,6.809c0.036,0.012,0.073,0.003,0.109,0.017
					c0.914,0.337,1.653,0.901,2.283,1.561c37.069,23.687,162.281,79.377,279.053,127.108c8.806-8.505,37.33-38.75,58.796-91.03
					C2897.965,2635.353,2844.539,2514.692,2844.539,2514.692z"/>
			</g>
		</g>
		<g style="opacity:0.3;">
			<g>
				<path style="fill:#390075;" d="M1898.626,3403.156c16.975,94.377,8.995,104.751-170.567,117.521
					c-179.564,12.769-300.469,11.172-289.695-69.83c0,0-4.284,3.543-9.359,9.827c-1.475,3.489-2.804,7.117-3.798,11.055
					c-7.447,29.53-5.726,50.645,5.249,64.543c21.949,27.784,83.068,29.27,154.666,28.315c26.823-0.338,59.077,0.308,93.245,1.002
					c112.688,2.283,267.015,5.442,296.236-31.384c20.276-25.543,10.087-53.556-0.695-83.207
					c-8.812-24.232-17.921-49.286-9.918-73.688c12.43-37.878,23.556-65.606,28.469-77.396
					c-41.626-14.834-73.011-45.929-86.003-60.434c0,0-0.051,0.096-0.145,0.262c-4.445,8.414-12.821,21.161-27.231,34.132
					c-0.196,5.043-1.786,14.167-1.786,14.167S1881.651,3308.78,1898.626,3403.156z"/>
			</g>
		</g>
		<g style="opacity:0.3;">
			<g>
				<path style="fill:#390075;" d="M2223.65,3454.438c-11.969-54.268,18.608-121.168,18.608-121.168l21.425,0.752
					c0,0-0.022-0.015-0.024-0.015c-59.48-1.536-113.16-7.645-156.12-13.785c5.687,16.918,15.1,53.467,9.727,98.85
					c-7.055,59.584,16.972,111.836,57.132,124.248c42.032,12.986,257.061,28.376,397.412,14.913
					c68.052-6.535,112.615-28.406,125.493-61.571c2.505-6.455,3.536-13.192,3.453-20.018c-15.99,8.313-78.831,36.966-186.614,37.648
					C2388.051,3515.09,2235.622,3508.706,2223.65,3454.438z"/>
			</g>
		</g>
		<g style="opacity:0.3;">
			<g>
				<path style="fill:#390075;" d="M2320.169,2963.704c63.223,51.441,134.624,99.844,154.489,113.12l18.031-30.05
					c-15.418-10.368-52.335-35.07-61.744-40.245C2418.997,2999.957,2320.524,2963.834,2320.169,2963.704z"/>
			</g>
		</g>
		<g style="opacity:0.3;">
			<g>
				<path style="fill:#390075;" d="M2656.596,2968.821c-96.831-32.875-129.201-151.779-129.29-152.102
					c-2.766,38.203,1.863,88.274,32.631,132.842c55.103,79.836,135.694,81.751,192.748,56.903
					c30.351-13.216,52.542-33.479,56.534-51.618c1.576-7.145,0.091-13.336-4.415-18.41c-1.798-2.022-3.493-3.769-5.135-5.394
					C2790.529,2943.16,2743.192,2998.221,2656.596,2968.821z"/>
			</g>
		</g>
		<g style="opacity:0.3;">
			<g>
				<path style="fill:#390075;" d="M1901.963,2659.221c19.132-12.629,67.338-45.664,122.116-92.281l-4.353-14.542
					c-43.437,18.151-97.408,39.275-109.512,37.546c-10.346-1.478-42.592-40.051-72.582-78.71l-11.121,39.751
					c30.614,55.824,58.417,94.073,69.552,108.658C1897.916,2659.671,1899.882,2659.535,1901.963,2659.221z"/>
			</g>
		</g>
		<g style="opacity:0.25;">
			<g>
				<path style="fill:#021168;" d="M2034.344,2558.094c8.4-7.307,16.918-14.93,25.469-22.814
					c-7.79,3.395-17.659,7.655-28.619,12.295L2034.344,2558.094z"/>
			</g>
		</g>
		<g style="opacity:0.3;">
			<g>
				<path style="fill:#390075;" d="M1771.986,2434.254c14.574,37.444,30.503,71.41,46.073,101.03l10.152-36.288
					c-26.858-35.145-49.664-67.067-49.664-67.067L1771.986,2434.254z"/>
			</g>
		</g>
		<g>
			<g>
				<path style="fill:#390075;" d="M1709.81,3329.505c-38.979,0-81.284-2.586-118.281-6.59
					c-107.3-11.616-165.806-31.679-173.896-59.629c-12.3-42.498,16.514-385.923,25.078-484.084
					c-33.926,8.325-102.441,18.892-173.735-6.37c-94.556-33.516-283.413-243.272-300.83-262.778
					c-17.271-12.961-120.532-93.936-105.01-165.085c11.89-54.483,49.536-94.658,67.002-110.867
					c-18.74-43.054-20.703-76.836-5.815-100.51c12.739-20.256,37.432-31.414,69.526-31.414c47.744,0,116.494,88.567,142.93,125.271
					c13.184-8.079,35.576-21.37,59.707-33.826c11.182-5.771,22.881-6.765,33.843-2.849c21.885,7.81,34.693,31.909,43.408,52.031
					c0.01,0.027,0.025,0.054,0.034,0.083c3.647,4.817,4.751,14.47,7.251,36.34c0.908,7.925,1.753,15.835,2.314,21.226
					c27.71,20.471,75.054,68.745,97.236,91.863c96.821-119.182,233.516-152.656,239.502-154.072
					c8.052-1.897,16.074,3.071,17.974,11.099c1.899,8.025-3.066,16.067-11.084,17.971l0,0
					c-1.421,0.337-142.861,35.225-233.271,156.787c-2.642,3.55-6.724,5.747-11.138,5.999c-4.448,0.234-8.726-1.467-11.748-4.697
					c-0.786-0.837-78.94-84.055-109.775-104.104c-3.794-2.468-6.265-6.523-6.719-11.028c-2.056-20.469-4.839-44.744-6.084-51.487
					c-0.718-1.36-1.323-2.759-1.904-4.107c-9.004-20.781-17.764-32.815-26.04-35.769c-2.104-0.752-5.161-1.292-10.098,1.262
					c-36.059,18.611-69.067,39.78-69.399,39.99c-6.792,4.363-15.811,2.546-20.381-4.094
					c-35.454-51.497-98.154-124.016-126.558-124.016c-12.422,0-34.692,2.266-44.238,17.444
					c-10.093,16.05-5.869,44.424,12.212,82.056c3.032,6.309,1.279,13.877-4.224,18.206c-0.503,0.4-52.275,41.992-65.273,101.579
					c-10.073,46.17,65.054,113.57,94.849,135.645c0.825,0.61,1.592,1.311,2.275,2.08c1.987,2.234,199.629,223.757,289.507,255.613
					c88.457,31.353,174.536,0.378,175.391,0.063c4.81-1.765,10.181-0.959,14.248,2.158c4.063,3.11,6.25,8.088,5.796,13.188
					c-15.64,174.795-37.085,463.723-28.066,494.897c3.53,7.659,45.376,27.419,151.831,38.596
					c83.711,8.792,167.314,7.908,203.296-2.141c64.175-17.934,84.336-56.626,88.398-66.108l-8.335-554.934
					c-0.122-8.25,6.465-15.037,14.712-15.159c0.078-0.002,0.151-0.002,0.229-0.002c8.145,0,14.809,6.541,14.932,14.712l8.379,557.84
					c0.024,1.648-0.225,3.289-0.737,4.856c-0.835,2.559-21.45,62.952-109.541,87.566
					C1785.825,3326.817,1749.546,3329.505,1709.81,3329.505z M1258.13,2267.21c0.098,0.027,0.195,0.051,0.293,0.076
					C1258.325,2267.261,1258.228,2267.237,1258.13,2267.21z"/>
			</g>
		</g>
		<g>
			<g>
				<path style="fill:#390075;" d="M1896.455,2682.119c-3.467,0-6.885-1.509-9.229-4.355
					c-1.367-1.66-137.271-168.799-178.872-400.974c-1.162-6.494,3.159-12.705,9.653-13.869c6.509-1.155,12.71,3.161,13.872,9.656
					c35.298,197.002,140.024,345.569,167.271,381.601c46.953-31.028,263.335-181.142,328.603-352.798
					c2.344-6.174,9.248-9.268,15.415-6.924c6.167,2.346,9.268,9.248,6.919,15.415c-75.869,199.558-336.27,363.557-347.319,370.439
					C1900.811,2681.529,1898.623,2682.119,1896.455,2682.119z"/>
			</g>
		</g>
		<g>
			<g>
				<path style="fill:#390075;" d="M1885.264,2753.475c-102.525,0.005-212.788-135.227-219.302-156.406
					c-3.77-12.246,3.413-32.134,15.684-63.433c3.755-9.575,8.213-20.945,10.249-28.022c-7.617-1.746-23.11-2.798-35.01-3.606
					c-30.068-2.041-67.485-4.582-92.7-17.531c-49.438-25.388-5.82-176.716,8.73-222.49c2.002-6.292,8.721-9.751,15.005-7.771
					c6.289,2,9.766,8.718,7.769,15.007c-26.978,84.939-41.685,183.159-20.586,193.994c20.835,10.698,55.523,13.054,83.399,14.949
					c31.367,2.129,46.777,3.54,54.331,12.224c2.886,3.323,4.307,7.529,3.999,11.846c-0.591,8.305-5.303,20.659-12.934,40.125
					c-5.586,14.241-15.923,40.608-15.063,47.693c7.31,16.299,115.366,150.271,207.207,138.87
					c111.289-13.816,223.794-78.486,255.557-97.92c-9.028-19.551-23.296-54.929-17.495-72.349
					c2.373-7.114,8.584-25.827,132.964-22.685c115.752-132.751,105.757-244.429,105.645-245.554
					c-0.679-6.565,4.097-12.434,10.659-13.111c6.509-0.667,12.437,4.097,13.11,10.664c0.522,5.063,11.323,125.686-115.215,268.04
					c-2.349,2.642-5.586,4.207-9.287,4.004c-47.319-1.392-103.442,1.453-115.513,7.905c-0.718,9.312,8.628,37.002,21.211,62.195
					c2.705,5.41,0.938,11.99-4.111,15.32c-5.581,3.677-138.247,90.283-274.585,107.207
					C1894.434,2753.201,1889.854,2753.475,1885.264,2753.475z"/>
			</g>
		</g>
		<g>
			<g>
				<path style="fill:#390075;" d="M1758.535,2434.886c-2.148,0-4.316-0.576-6.274-1.787c-5.615-3.471-7.349-10.837-3.877-16.45
					l80.806-130.644c3.477-5.613,10.845-7.344,16.445-3.877c5.615,3.471,7.349,10.837,3.877,16.45l-80.806,130.645
					C1766.445,2432.874,1762.534,2434.886,1758.535,2434.886z"/>
			</g>
		</g>
		<g>
			<g>
				<path style="fill:#390075;" d="M2148.228,2464.578c-2.925,0-5.859-1.067-8.164-3.225
					c-38.257-35.827-81.685-146.692-83.516-151.394c-2.392-6.15,0.654-13.074,6.802-15.469c6.152-2.402,13.076,0.652,15.474,6.8
					c0.425,1.101,43.271,110.488,77.578,142.62c4.814,4.509,5.063,12.073,0.552,16.889
					C2154.604,2463.309,2151.421,2464.578,2148.228,2464.578z"/>
			</g>
		</g>
		<g>
			<g>
				<path style="fill:#390075;" d="M1980.938,2434.99c-30.205,0-115.571-6.657-125.732-9.487
					c-11.646-3.242-31.358-28.386-58.584-74.731c-3.345-5.688-1.44-13.01,4.248-16.355c5.703-3.337,13.018-1.436,16.357,4.248
					c16.05,27.315,37.729,59.136,45.029,63.977c13.648,3.125,104.649,8.997,121.304,8.633c10.85-8.022,58.374-50.506,90.61-79.9
					c4.883-4.448,12.446-4.094,16.88,0.779c4.448,4.878,4.102,12.436-0.776,16.882c-90.845,82.825-96.46,84.475-99.477,85.364
					C1989.404,2434.808,1985.918,2434.99,1980.938,2434.99z M1982.1,2412.283L1982.1,2412.283L1982.1,2412.283z"/>
			</g>
		</g>
		<g>
			<g>
				<path style="fill:#390075;" d="M1819.917,2563.567c-1.065,0-2.149-0.144-3.223-0.447c-6.357-1.777-10.068-8.369-8.291-14.727
					l38.501-137.622c1.782-6.355,8.389-10.083,14.726-8.286c6.358,1.777,10.068,8.369,8.291,14.727l-38.501,137.622
					C1829.942,2560.113,1825.142,2563.567,1819.917,2563.567z"/>
			</g>
		</g>
		<g>
			<g>
				<path style="fill:#390075;" d="M2031.216,2581.185c-5.142,0-9.893-3.347-11.44-8.525l-43.794-146.296
					c-1.894-6.323,1.694-12.983,8.018-14.875s12.983,1.699,14.873,8.02l43.794,146.297c1.894,6.323-1.694,12.983-8.018,14.875
					C2033.506,2581.021,2032.349,2581.185,2031.216,2581.185z"/>
			</g>
		</g>
		<g>
			<g>
				<path style="fill:#390075;" d="M1444.783,2756.272l47.009-233.364c0.798-3.967,4.666-6.538,8.633-5.737
					c3.806,0.767,6.321,4.377,5.815,8.169l-32,235.894C1470.83,2781.262,1441.468,2776.43,1444.783,2756.272L1444.783,2756.272z"/>
			</g>
		</g>
		<g>
			<g>
				<path style="fill:#390075;" d="M1394.133,2406.912l45.591,86.406c2.8,5.216-4.594,10.134-8.306,5.53l-62.148-75.378
					C1356.137,2406.002,1383.045,2388.026,1394.133,2406.912L1394.133,2406.912z"/>
			</g>
		</g>
		<g>
			<g>
				<path style="fill:#390075;" d="M987.412,2524.029c-5.513,0-10.811-3.062-13.413-8.34c-3.643-7.397-0.601-16.35,6.797-19.998
					c1.118-0.552,112.49-56.074,164.624-134.277c2.197-3.296,5.615-5.586,9.502-6.362c0.64-0.129,66.23-13.799,102.979-56.074
					c5.415-6.228,14.849-6.885,21.074-1.472c6.226,5.41,6.885,14.846,1.475,21.072c-36.792,42.322-94.644,59.639-113.564,64.365
					c-57.7,82.222-168.13,137.205-172.891,139.548C991.87,2523.536,989.624,2524.029,987.412,2524.029z"/>
			</g>
		</g>
		<g>
			<g>
				<path style="fill:#390075;" d="M946.299,2471.827c-6.24,0-12.549-0.471-18.931-1.416c-8.159-1.206-13.794-8.801-12.588-16.96
					c1.206-8.162,8.77-13.799,16.963-12.59c42.456,6.289,80.459-14.651,116.25-63.97c26.509-36.526,21.836-67.258-16.143-106.079
					c-29.604-30.259-79.419-18.41-79.917-18.288c-8.032,1.98-16.099-2.917-18.076-10.925c-1.977-8.01,2.915-16.104,10.928-18.079
					c2.715-0.674,67.017-15.925,108.423,26.404c30.522,31.201,65.693,80.127,18.965,144.514
					C1034.849,2445.867,992.578,2471.827,946.299,2471.827z"/>
			</g>
		</g>
		<g>
			<g>
				<path style="fill:#390075;" d="M1042.205,2390.115c-1.362-31.586-30.67-54.107-58.271-65.063l-13.887-4.856l-0.527-0.183
					c-7.523-2.691-4.415-14.069,3.435-12.537c21.082,3.659,42.777,10.297,60.441,22.708c19.347,13.413,35.667,34.823,38.667,58.965
					C1072.196,2408.838,1043.348,2409.8,1042.205,2390.115L1042.205,2390.115z"/>
			</g>
		</g>
		<g>
			<g>
				<path style="fill:#390075;" d="M2535.156,2235.923c124.36,24.165,251.909,84.631,325.391,191.359
					c26.015,38.377,43.447,83.077,51.581,128.722c1.842,8.987,4.1,17.883,4.932,27.082c1.095,9.665,4.457,31.721,4.36,41.191
					c0.271,12.878,1.687,28.745,0.512,41.553c-1.917,64.683-20.681,130.614-57.07,184.431c-7.809,11.78-16.59,23.006-26.267,33.406
					c-6.219,6.531-15.164,17.978-25.728,13.142c-87.059-36.272-174.039-72.041-258.277-114.767
					c-14.705-8.238-30.512-15.162-42.901-27.808c-2.657-3.031-4.149-5.672-5.146-10.552c-0.259-3.76-0.385-8.313,0.135-10.801
					c6.826-38.635,24.181-74.185,39.362-110.01c0.001,0,5.634,18.838,5.634,18.838l-93.752-70.574
					c-2.285-1.721-2.744-4.968-1.023-7.253c1.543-2.053,4.319-2.629,6.523-1.484l104.167,54.031c7.104,3.602,8.87,12.091,5.63,18.84
					c-7.492,16.709-14.806,33.892-21.401,50.991c-6.281,17.308-13.886,34.89-15.716,53.086c-0.057-1.352-0.911-3.415-1.708-4.529
					c24.939,18.784,55.656,31.182,83.906,45.177c67.576,31.392,136.612,60.624,205.542,89.025c0,0-15.283,2.424-15.283,2.424
					c54.598-53.166,81.174-131.55,83.521-206.699c1.133-11.879-0.181-26.709-0.479-38.667c0.158-8.713-3.103-29.682-4.092-38.601
					c-1.33-15.004-7.404-35.944-10.082-50.96c-30.613-121.162-134.404-200.558-247.006-242.775
					c-32.33-12.183-66.313-22.347-100.236-28.363C2511.035,2261.741,2515.423,2233.18,2535.156,2235.923L2535.156,2235.923z"/>
			</g>
		</g>
		<g>
			<g>
				<path style="fill:#390075;" d="M2547.732,2620.042l77.756-86.865c4.398-4.959,12.361,1.063,8.745,6.634
					c0,0-62.7,98.286-62.7,98.286C2559.292,2655.627,2534.127,2636.609,2547.732,2620.042L2547.732,2620.042z"/>
			</g>
		</g>
		<g>
			<g>
				<path style="fill:#390075;" d="M2547.415,2757.957c-28.6,86.696-8.125,191.232,75.736,238.342
					c51.932,27.892,122.55,16.505,165.141-23.502c6.691-7.36,15.746-18.312,11.643-27.899c-5.114-7.661-13.972-15.486-22.109-18.992
					c-0.353-0.137-0.691-0.215-0.848-0.263c0.261,0.012-0.315,0.029,1.318,0.076l12-6.035
					c-12.975,13.326-30.919,21.106-49.172,22.81c-7.161-0.056-23.632,3.174-23.172-7.605c0.311-3.303,2.941-5.748,6.079-6.102
					c16.936-2.547,33.81-11.958,42.273-26.904c0,0,11.999-6.038,11.999-6.038c2.397,0.073,2.576,0.203,3.591,0.332
					c17.062,3.662,30.702,16.535,41.119,29.423c16.716,21.581,3.938,51.372-13.341,68.059
					c-32.587,31.842-78.23,47.119-123.131,47.972c-82.489,1.634-150.872-64.296-172.236-140.594
					c-13.97-50.542-10.994-103.919,5.097-153.461C2526.653,2728.933,2554.078,2739.068,2547.415,2757.957L2547.415,2757.957z"/>
			</g>
		</g>
		<g>
			<g>
				<path style="fill:#390075;" d="M2778.311,2925.718c-4.482,0-8.916-2.009-11.86-5.842c-5.019-6.545-3.789-15.923,2.759-20.945
					c12.769-9.797,17.69-26.829,17.739-27c2.231-7.91,10.474-12.568,18.364-10.379c7.925,2.19,12.598,10.332,10.444,18.267
					c-0.737,2.72-7.798,27.029-28.364,42.813C2784.683,2924.712,2781.485,2925.718,2778.311,2925.718z"/>
			</g>
		</g>
		<g>
			<g>
				<path style="fill:#390075;" d="M2291.733,3343.152c-99.712,0-186.104-13.984-238.071-22.397
					c-13.618-2.205-24.38-3.945-32.144-4.9c-73.55-9.031-126.269-75.837-128.481-78.677c-5.063-6.511-3.892-15.896,2.622-20.962
					c6.514-5.059,15.894-3.889,20.957,2.615c0.82,1.045,47.7,59.902,108.545,67.375c8.33,1.023,19.341,2.805,33.276,5.061
					c101.211,16.377,336.538,54.487,538.711-36.765c3.657-35.55,16.904-175.276,6.626-241.335
					c-1.264-8.149,4.312-15.786,12.466-17.053c8.11-1.274,15.786,4.304,17.056,12.463c12.378,79.602-6.533,250.376-7.344,257.607
					c-0.581,5.159-3.794,9.648-8.496,11.855C2510.068,3328.462,2393.906,3343.152,2291.733,3343.152z"/>
			</g>
		</g>
		<g>
			<g>
				<path style="fill:#390075;" d="M1499.019,3051.221c-4.59,0-8.96-2.661-10.932-7.122l-19.751-44.69
					c-2.515-5.691-0.244-12.361,5.225-15.332c1.475-0.801,147.988-80.85,192.153-141.76c2.456-3.386,6.509-5.254,10.679-4.893
					c4.175,0.354,7.856,2.864,9.712,6.619l30.327,61.45c2.373,4.807,1.25,10.608-2.744,14.187
					c-3.511,3.149-87.451,77.725-209.941,130.559C1502.207,3050.906,1500.601,3051.221,1499.019,3051.221z M1494.6,2999.725
					l10.518,23.792c93.921-42.349,164.248-97.849,185.767-115.784l-18.022-36.514C1624.8,2924.129,1526.03,2981.993,1494.6,2999.725
					z"/>
			</g>
		</g>
		<g>
			<g>
				<path style="fill:#390075;" d="M2476.636,3097.505c-2.309,0-4.59-0.669-6.553-1.958
					c-1.348-0.881-135.625-89.236-214.624-164.124c-4.458-4.228-4.985-11.15-1.211-16.003l42.168-54.268
					c1.992-2.571,4.951-4.214,8.188-4.553c3.213-0.344,6.475,0.659,8.955,2.756c1.489,1.26,149.555,126.299,201.323,164.731
					c4.932,3.665,6.284,10.473,3.125,15.742l-31.123,51.875c-1.675,2.788-4.414,4.775-7.583,5.5
					C2478.418,3097.408,2477.524,3097.505,2476.636,3097.505z M2279.819,2921.46c64.98,59.612,161.504,125.977,193.022,147.197
					l19.146-31.912c-49.702-38.052-152.373-124.197-184.331-151.108L2279.819,2921.46z"/>
			</g>
		</g>
		<g>
			<g>
				<path style="fill:#390075;" d="M1772.661,3587.896c-29.424,0-61.099-0.506-94.712-1.189
					c-33.994-0.688-66.089-1.343-92.549-0.996c-80.122,1.04-143.564-0.954-171.519-36.35c-15.318-19.392-18.311-46.472-9.155-82.793
					c16.958-67.253,87.422-80.481,139.468-80.637c-55.669-46.543-59.888-89.893-60.068-92.124
					c-0.664-8.223,5.469-15.425,13.691-16.086c8.096-0.71,15.322,5.383,16.069,13.518c0.151,1.238,7.202,53.413,92.964,101.296
					c6.406,3.576,9.268,11.277,6.748,18.169c-2.515,6.89-9.697,10.932-16.87,9.536c-1.416-0.271-142.837-26.494-163.037,53.633
					c-6.733,26.716-5.547,45.352,3.633,56.973c19.448,24.619,80.952,25.891,147.686,24.993c26.958-0.342,59.297,0.308,93.545,1.001
					c104.6,2.126,262.671,5.347,289.189-28.069c16.079-20.256,9.946-41.768-2.06-74.785c-9.321-25.625-18.955-52.124-10.01-79.399
					c16.797-51.194,30.859-83.157,31.45-84.492c3.33-7.542,12.153-10.952,19.697-7.622c7.544,3.335,10.957,12.153,7.627,19.7
					c-0.137,0.315-14.097,32.065-30.386,81.726c-5.732,17.461,1.763,38.064,9.697,59.878c11.719,32.231,25.005,68.765-2.617,103.567
					C1964.844,3580.479,1885.435,3587.894,1772.661,3587.896z"/>
			</g>
		</g>
		<g>
			<g>
				<path style="fill:#390075;" d="M2443.804,3584.654c-120.503,0-243.315-11.165-275.64-21.157
					c-49.902-15.422-80.127-77.207-71.875-146.909c6.567-55.444-11.679-97.498-11.865-97.917c-3.335-7.53,0.049-16.353,7.573-19.705
					c7.519-3.357,16.328,0,19.697,7.51c0.894,1.997,21.841,49.609,14.263,113.625c-6.455,54.492,15.483,103.87,51.025,114.856
					c41.499,12.827,254.57,27.961,393.994,14.565c63.647-6.113,106.719-26.536,118.169-56.03
					c7.075-18.23,1.499-39.353-15.302-57.952c-32.608-36.096-139.976-36.941-178.599-34.216c-6.021,0.413-11.729-2.827-14.424-8.24
					s-1.865-11.917,2.109-16.475c0.327-0.378,34.263-39.966,41.719-86.37c1.309-8.15,9.028-13.672,17.114-12.38
					c8.145,1.309,13.687,8.972,12.378,17.117c-4.829,30.059-18.433,56.946-30.044,75.454c48.018-0.298,135.635,4.917,171.914,45.085
					c24.282,26.883,32.124,60.073,20.981,88.784c-9.214,23.745-40.068,65.056-143.164,74.958
					C2534.116,3583.072,2489.116,3584.654,2443.804,3584.654z"/>
			</g>
		</g>
		<g>
			<g>
				<path style="fill:#390075;" d="M2495.576,3401.296c-48.512,0.632-97.458,8.707-144.236,22.636
					c32.878-17.701,68.13-32.06,104.128-42.815c12.239-3.628,24.155-6.897,37.339-9.568c8.132-1.646,16.06,3.611,17.705,11.741
					C2512.506,3392.537,2505.009,3401.531,2495.576,3401.296L2495.576,3401.296z"/>
			</g>
		</g>
		<g>
			<g>
				<path style="fill:#390075;" d="M1600.959,3390.706c41.398,9.936,80.148,27.153,114.729,51.582
					c-9.617-3.696-19.202-7.168-29.036-9.8c-28.496-7.921-59.251-12.385-88.552-12.036
					C1575.754,3419.987,1578.887,3386.917,1600.959,3390.706L1600.959,3390.706z"/>
			</g>
		</g>
		<g>
			<g>
				<g>
					<path style="fill:#86E6FC;" d="M1075.656,2047.807l-171.315-213.859c-26.952,20.115-64.138,48.104-80.301,60.786
						c-1.697,1.332-3.237,2.549-4.433,3.515c16.654,23.405,103.271,140.375,164.384,222.645L1075.656,2047.807z"/>
				</g>
			</g>
			<g>
				<g>
					<polygon style="fill:#C4C9D6;" points="1161.96,2212.331 1092.867,2124.887 1059.043,2150.37 1128.612,2238.968 					"/>
				</g>
			</g>
			<g>
				<g>
					<path style="fill:#C4C9D6;" d="M886.24,1832.017l-24.752-33.475l-66.989,45.173l27.088,37.161
						C833.091,1871.834,852.731,1857.024,886.24,1832.017z"/>
				</g>
			</g>
			<g>
				<g>
					<polygon style="fill:#9DA9B9;" points="1110.631,2269.164 1134.621,2296.979 1221.512,2230.043 1198.724,2198.799 					"/>
				</g>
			</g>
			<g>
				<g>
					<polygon style="fill:#9DA9B9;" points="1100.749,2043.62 974.58,2144.221 997.931,2173.437 1126.504,2076.272 					"/>
				</g>
			</g>
			<g>
				<g>
					<polygon style="fill:none;" points="1081.335,2059.1 1031.066,2099.183 1052.129,2132.478 1110.413,2088.431 					"/>
				</g>
			</g>
			<g>
				<g>
					<path style="fill:none;" d="M886.24,1849.359l-1.761-0.547c-23.101,17.33-47.997,36.158-60.439,45.922
						c-1.697,1.332-3.237,2.549-4.433,3.515c1.721,2.419,4.228,5.889,7.339,10.166c1.881,2.569,42.576-24.341,42.576-24.341
						l138.861,192.73l-35.376,29.297c3.734,5.03,7.406,9.976,10.985,14.793l75.053-59.843l0,0L886.24,1849.359z"/>
				</g>
			</g>
			<g>
				<g>
					<path style="fill:none;" d="M1152.989,2235.331c10.34,12.87,18.814,23.551,23.354,29.508l45.17-34.796l-22.789-31.245
						L1152.989,2235.331z"/>
				</g>
			</g>
			<g>
				<g>
					<path style="fill:none;" d="M827.119,1821.717l25.83,35.224l-0.002,0.002c5.566-4.187,11.828-8.882,18.771-14.075
						c-5.933-7.77-23.373-30.821-24.479-34.718L827.119,1821.717z"/>
				</g>
			</g>
			<g>
				<g>
					<path style="fill:none;" d="M1074.14,2138.995c13.428,15.846,45.671,55.204,71.089,86.699l16.731-13.363l-69.093-87.444
						L1074.14,2138.995z"/>
				</g>
			</g>
			<g style="opacity:0.3;">
				<g>
					<path style="fill:#390075;" d="M1110.631,2269.164l23.991,27.814l41.721-32.139c-4.539-5.958-13.013-16.638-23.354-29.508
						L1110.631,2269.164z"/>
				</g>
			</g>
			<g style="opacity:0.3;">
				<g>
					<path style="fill:#390075;" d="M869.521,1884.075c0,0-40.694,26.91-42.576,24.341c25.226,34.678,92.614,125.7,146.06,197.686
						l35.376-29.297L869.521,1884.075z"/>
				</g>
			</g>
			<g style="opacity:0.3;">
				<g>
					<polygon style="fill:#390075;" points="974.58,2144.221 997.931,2173.437 1052.129,2132.478 1031.066,2099.183 					"/>
				</g>
			</g>
			<g style="opacity:0.25;">
				<g>
					<path style="fill:#021168;" d="M1059.043,2150.37l69.568,88.597l16.617-13.273c-25.418-31.495-57.661-70.853-71.089-86.699
						L1059.043,2150.37z"/>
				</g>
			</g>
			<g style="opacity:0.3;">
				<g>
					<path style="fill:#390075;" d="M827.119,1821.717l-32.62,21.998l27.088,37.161c6.996-5.498,17.061-13.174,31.361-23.933
						l0.002-0.002L827.119,1821.717z"/>
				</g>
			</g>
			<g style="opacity:0.4;">
				<g>
					<polygon style="fill:#FFFFFF;" points="1126.504,2076.272 1100.749,2043.62 1081.335,2059.1 1110.413,2088.431 					"/>
				</g>
			</g>
			<g style="opacity:0.4;">
				<g>
					<path style="fill:#FFFFFF;" d="M871.718,1842.868c4.557-3.409,9.317-6.966,14.522-10.851l-24.752-33.475l-14.248,9.608
						C848.345,1812.046,865.785,1835.097,871.718,1842.868z"/>
				</g>
			</g>
			<g style="opacity:0.4;">
				<g>
					<path style="fill:#FFFFFF;" d="M884.479,1848.812l1.761,0.547l172.804,211.693l0,0l16.613-13.246l-171.315-213.859
						C898.138,1838.578,891.384,1843.632,884.479,1848.812z"/>
				</g>
			</g>
			<g>
				<g>
					<g>
						<path style="fill:#390075;" d="M1133.76,2317.403c-3.364,0-6.699-1.416-9.053-4.148l-32.002-37.115
							c-2.124-2.458-3.149-5.674-2.852-8.909c0.303-3.232,1.904-6.203,4.443-8.23l98.164-78.408
							c2.544-2.034,5.811-2.939,9.048-2.508c3.228,0.435,6.143,2.168,8.062,4.802l30.142,41.34
							c3.818,5.234,2.769,12.556-2.363,16.506l-96.304,74.182C1138.882,2316.587,1136.314,2317.403,1133.76,2317.403z
							 M1118.906,2269.932l16.514,19.153l78.125-60.178l-15.928-21.848L1118.906,2269.932z"/>
					</g>
				</g>
				<g>
					<g>
						<path style="fill:#390075;" d="M1127.612,2259.642c-3.545,0-7.051-1.567-9.409-4.57l-77.324-98.462
							c-1.982-2.524-2.866-5.742-2.451-8.926s2.095-6.067,4.658-7.998l43.696-32.92c5.2-3.906,12.549-2.959,16.567,2.136
							l76.655,97.014c4.092,5.178,3.213,12.69-1.968,16.782c-5.176,4.097-12.69,3.213-16.782-1.968l-69.419-87.852l-24.629,18.557
							l69.795,88.875c4.072,5.19,3.169,12.703-2.021,16.777C1132.793,2258.807,1130.195,2259.642,1127.612,2259.642z"/>
					</g>
				</g>
				<g>
					<g>
						<path style="fill:#390075;" d="M996.865,2193.951c-3.516,0-6.987-1.543-9.346-4.49l-30.972-38.76
							c-1.978-2.476-2.891-5.64-2.539-8.792c0.352-3.152,1.943-6.033,4.424-8.01l135.869-108.335
							c2.485-1.983,5.635-2.91,8.823-2.527c3.159,0.364,6.04,1.973,8.008,4.47l33.521,42.495c1.992,2.522,2.881,5.737,2.471,8.924
							c-0.41,3.186-2.085,6.074-4.648,8.01l-138.418,104.597C1001.904,2193.162,999.375,2193.951,996.865,2193.951z
							 M982.686,2145.127l16.245,20.327l119.404-90.229l-18.525-23.486L982.686,2145.127z"/>
					</g>
				</g>
				<g>
					<g>
						<path style="fill:#390075;" d="M982.852,2141.675c-3.652,0-7.256-1.667-9.6-4.824c0,0-42.856-57.681-85.708-115.586
							c-88.032-118.96-88.032-118.96-88.032-124.023c0-7.793,0-7.793,98.784-81.406c5.161-3.845,12.446-2.91,16.465,2.112
							l178.926,223.359c4.126,5.151,3.296,12.671-1.856,16.797c-5.146,4.131-12.676,3.293-16.797-1.855L903.325,1841.9
							c-26.411,19.736-60.781,45.625-75.84,57.449c22.793,31.572,106.992,145.237,164.946,223.25
							c3.936,5.298,2.832,12.783-2.466,16.719C987.827,2140.906,985.327,2141.675,982.852,2141.675z"/>
					</g>
				</g>
				<g>
					<g>
						<path style="fill:#390075;" d="M820.41,1901.69c-3.687,0-7.324-1.702-9.663-4.912l-34.678-47.563
							c-1.914-2.622-2.676-5.908-2.114-9.104c0.557-3.196,2.397-6.028,5.088-7.842l77.212-52.073
							c5.308-3.577,12.48-2.341,16.289,2.803l31.943,43.196c3.921,5.305,2.803,12.788-2.505,16.711
							c-5.317,3.928-12.793,2.8-16.714-2.502l-25.137-33.997l-57.451,38.745l27.373,37.549c3.892,5.332,2.72,12.805-2.612,16.694
							C825.318,1900.943,822.852,1901.69,820.41,1901.69z"/>
					</g>
				</g>
				<g>
					<g>
						<path style="fill:#390075;" d="M824.277,1828.13c-3.452,0-6.88-1.492-9.243-4.373l-148.081-180.5
							c-4.185-5.1-3.442-12.632,1.66-16.816c5.102-4.184,12.627-3.445,16.816,1.66l148.081,180.5
							c4.185,5.1,3.442,12.632-1.66,16.816C829.629,1827.242,826.943,1828.13,824.277,1828.13z"/>
					</g>
				</g>
			</g>
		</g>
		<g>
			<g>
				<path style="fill:#390075;" d="M2129.307,2326.07c-24.546,0-49.678-0.439-75.459-1.323
					c-392.334-13.425-620.976-85.337-719.556-226.313c-65.146-93.169-72.104-213.984-21.279-369.351
					c15.801-48.298,27.798-95.979,35.664-141.714c0-0.003,0-0.003,0-0.003c22.319-129.734,107.495-435.923,419.463-536.897
					c-6.641-9.634-12.07-21.448-11.621-33.96c0.327-9.019,3.838-21.958,18.721-32.373c21.792-15.254,76.768-16.789,177.212-14.297
					c6.333,0.156,12.939,0.32,19.131,0.444c-13.804-22.564-24.243-46.223-16.982-65.654c2.866-7.676,9.668-17.739,25.776-22.075
					c45.884-12.361,197.305,51.079,275.898,105.859c16.572-66.878,67.778-241.719,180.396-394.47
					c112.007-151.919,271.641-238.589,364.98-243.005c32.964-1.575,58.794,6.951,74.604,24.622
					c43.413,48.52,34.609,186.936,28.813,244.194c-12.524,123.665-46.963,254.641-94.482,359.341
					c-78.379,172.676-160.679,235.659-198.755,256.902c44.619,67.3,196.694,312.39,221.807,561.477
					c14.492,143.689-19.419,260.63-100.781,347.578C2620.337,2265.289,2417.476,2326.07,2129.307,2326.07z M1384.009,1593.443
					L1384.009,1593.443c-8.164,47.449-20.586,96.836-36.924,146.785c-47.08,143.918-41.655,254.368,16.587,337.664
					c90.322,129.172,316.479,198.201,691.406,211.03c317.642,10.852,536.885-45.776,651.602-168.365
					c73.984-79.057,104.697-186.55,91.294-319.487c-27.905-276.767-225.449-559.246-227.441-562.068
					c-3.33-4.714-4.185-10.745-2.3-16.199s6.279-9.668,11.812-11.318c0.84-0.271,101.338-34.48,197.896-247.207
					c103.423-227.861,117.779-513.201,71.597-564.817c-10.571-11.816-30.947-13.454-46.191-12.715
					c-86.27,4.082-236.216,90.659-337.817,228.472c-134.731,182.737-179.956,405.596-180.4,407.825
					c-1.235,6.25-5.698,11.377-11.714,13.462c-6.035,2.083-12.705,0.82-17.534-3.325
					c-69.785-59.817-235.635-124.199-266.186-116.011c-0.801,0.217-1.328,0.425-1.655,0.579
					c-1.782,9.026,14.321,34.717,24.238,49.446c5.259,7.808,7.437,11.04,8.501,15.308c1.357,5.43,0.029,11.479-3.472,15.847
					c-7.021,8.782-11.47,8.674-65.742,7.329c-41.792-1.038-139.644-3.457-155.767,7.83c-3.379,2.363-3.433,3.762-3.452,4.287
					c-0.254,6.641,10.166,19.983,19.683,27.803c5.176,4.258,7.563,11.06,6.162,17.615c-1.401,6.553-6.328,11.792-12.793,13.555
					C1490.542,1162.635,1405.82,1466.687,1384.009,1593.443z"/>
			</g>
		</g>
		<g>
			<g>
				<g>
					<g>
						<g>
							<path style="fill:#390075;" d="M1637.725,1536.993c49.396,1.391,87.443,60.629,84.98,132.311
								c-2.462,71.683-44.502,128.665-93.899,127.274c-49.395-1.391-87.443-60.628-84.981-132.311
								C1546.288,1592.585,1588.33,1535.601,1637.725,1536.993z"/>
						</g>
					</g>
				</g>
			</g>
			<g>
				<g>
					<g>
						<g>
							<path style="fill:#FFFFFF;" d="M1637.28,1567.096c14.688,8.511,18.231,33.482,7.915,55.772
								c-10.316,22.291-30.585,33.46-45.273,24.948c-14.687-8.511-18.231-33.481-7.914-55.771
								C1602.324,1569.754,1622.592,1558.584,1637.28,1567.096z"/>
						</g>
					</g>
				</g>
			</g>
			<g>
				<g>
					<g>
						<g>
							<path style="fill:#B199C5;" d="M1669.697,1726.122c6.644,6.403,5.805,19.805-1.873,29.935
								c-7.678,10.131-19.288,13.152-25.931,6.75c-6.644-6.401-5.805-19.805,1.873-29.933
								C1651.443,1722.743,1663.054,1719.721,1669.697,1726.122z"/>
						</g>
					</g>
				</g>
			</g>
		</g>
		<g>
			<g>
				<path style="fill:#390075;" d="M2342.207,1637.429c-68.53,3.192-128.611,37.958-176.047,84.952
					c-6.472,6.828-12.866,13.798-19.478,20.539l-25.571-37.588c9.645-3.181,19.209-4.851,29.099-6.308
					c37.018-5.046,75.683-0.535,110.161,13.936c8.425,3.913,16.804,7.632,24.47,12.756c15.745,9.265,29.336,21.667,40.823,35.134
					c-4.341-1.333-8.445-2.891-12.588-4.294c-52.896-19.446-111.777-23.67-166.47-9.68c-2.651,0.689-7.387,2.005-9.951,2.866
					c-12.492,4.724-26.586-1.907-30.623-14.702c-2.639-8.257-0.408-16.924,5.054-22.888c7.307-7.942,14.482-16.021,22.222-23.579
					C2186.362,1637.166,2271.804,1603.19,2342.207,1637.429L2342.207,1637.429z"/>
			</g>
		</g>
	</g>
</g>
</svg>
